<?xml version="1.0" standalone="no"?>
<!DOCTYPE svg PUBLIC "-//W3C//DTD SVG 20010904//EN"
 "http://www.w3.org/TR/2001/REC-SVG-20010904/DTD/svg10.dtd">
<svg version="1.0" xmlns="http://www.w3.org/2000/svg"
 width="1024.000000pt" height="1024.000000pt" viewBox="0 0 1024.000000 1024.000000"
 preserveAspectRatio="xMidYMid meet">
<metadata>
Created by potrace 1.11, written by Peter Selinger 2001-2013
</metadata>
<g transform="translate(0.000000,1024.000000) scale(0.100000,-0.100000)"
fill="#000000" stroke="none">
<path d="M3556 9982 c2 -3 -1 -11 -7 -19 -8 -9 -8 -13 -1 -13 16 0 26 20 15
30 -6 4 -8 5 -7 2z"/>
<path d="M3715 9970 c-4 -6 -15 -8 -26 -5 -13 4 -19 2 -19 -9 0 -9 -6 -16 -12
-17 -80 -6 -104 -11 -106 -19 -2 -6 -9 -7 -15 -4 -8 5 -8 2 1 -7 15 -16 16
-29 1 -29 -5 0 -8 4 -5 9 3 5 -1 11 -8 14 -8 3 -16 1 -18 -4 -3 -9 -24 -16
-55 -18 -6 -1 -19 -8 -28 -17 -13 -14 -14 -19 -3 -25 9 -6 6 -9 -10 -9 -24 0
-84 -29 -90 -42 -2 -5 -9 -8 -14 -8 -6 0 -29 -8 -50 -17 -35 -15 -42 -26 -41
-60 0 -7 -9 -15 -21 -18 -50 -14 -76 -28 -76 -41 0 -8 -10 -14 -22 -14 -19 0
-20 2 -8 10 8 5 11 10 5 10 -29 0 -52 -45 -34 -66 8 -10 8 -14 0 -14 -6 0 -11
5 -11 11 0 8 -4 8 -14 -1 -8 -6 -12 -18 -9 -26 3 -8 0 -14 -7 -14 -6 0 -9 -4
-6 -9 3 -5 -2 -15 -11 -22 -12 -10 -14 -10 -9 -1 13 21 -12 13 -28 -10 -12
-17 -13 -25 -3 -42 11 -20 11 -20 17 9 l6 30 5 -32 c5 -27 2 -33 -13 -33 -10
0 -17 -6 -15 -12 1 -8 -9 -13 -25 -13 -19 1 -28 -4 -28 -15 -1 -13 -3 -12 -14
2 -11 15 -14 11 -27 -34 -9 -34 -25 -62 -46 -81 -19 -18 -30 -35 -27 -45 5
-14 4 -14 -6 1 -15 23 -33 22 -25 -3 6 -18 4 -19 -20 -10 -39 15 -53 12 -28
-5 22 -16 22 -45 -1 -45 -6 0 -17 -14 -25 -30 -10 -25 -16 -28 -27 -19 -8 7
-14 7 -14 1 0 -14 -34 -21 -53 -11 -12 7 -14 5 -10 -11 4 -15 0 -20 -16 -20
-28 0 -27 -16 2 -25 21 -8 21 -8 -6 -12 -15 -2 -25 -8 -22 -13 3 -5 12 -7 20
-3 8 3 15 1 15 -5 0 -17 -27 -33 -44 -26 -9 3 -16 1 -16 -5 0 -6 4 -11 9 -11
17 0 22 -63 5 -81 -9 -10 -11 -19 -6 -23 6 -3 8 -15 5 -26 -3 -11 -2 -28 3
-37 4 -10 8 -22 8 -26 1 -4 7 -12 15 -16 13 -8 17 -39 10 -71 -3 -11 5 -15 29
-15 27 0 32 -3 28 -17 -2 -10 0 -21 5 -24 5 -3 9 0 9 5 0 6 7 11 16 11 11 0
14 -6 9 -20 -4 -12 -1 -28 6 -36 10 -12 9 -13 -6 -7 -15 5 -17 3 -12 -11 4
-10 7 -22 7 -27 0 -5 7 -9 15 -9 8 0 15 -5 15 -11 0 -5 -3 -8 -7 -6 -5 3 -9
-13 -10 -34 -2 -22 -8 -50 -14 -62 -14 -25 -41 -47 -50 -41 -14 8 -31 -26 -33
-67 -2 -24 -9 -45 -15 -47 -6 -2 -11 -10 -11 -18 0 -8 -7 -14 -15 -14 -8 0
-15 4 -15 9 0 5 7 14 15 21 8 7 15 20 15 29 -1 11 -8 7 -23 -14 -12 -16 -22
-32 -22 -35 0 -13 -32 -45 -45 -45 -8 0 -16 -9 -18 -20 -6 -26 -32 -65 -44
-65 -6 0 -8 6 -5 13 7 19 -11 57 -28 57 -16 0 -21 -16 -5 -22 15 -5 -22 -69
-46 -78 -42 -16 -74 -52 -74 -83 0 -21 -4 -28 -14 -24 -8 3 -17 -1 -20 -9 -3
-8 -15 -14 -26 -14 -16 0 -20 -6 -20 -35 0 -19 -4 -35 -10 -35 -5 0 -10 9 -10
20 0 23 -18 27 -26 5 -4 -8 -12 -15 -20 -15 -8 0 -14 -7 -14 -16 0 -12 3 -14
13 -6 10 9 13 4 14 -22 1 -24 -7 -43 -27 -65 -29 -32 -46 -67 -42 -88 2 -7 -2
-13 -8 -13 -5 0 -10 12 -11 28 -1 26 -1 26 -18 -9 -9 -20 -22 -43 -28 -50 -6
-8 -13 -25 -15 -39 -2 -15 -16 -33 -35 -45 -34 -21 -42 -40 -20 -48 7 -2 -2
-20 -28 -50 -43 -49 -55 -56 -55 -32 0 8 -5 15 -11 15 -18 0 -56 -35 -51 -48
2 -6 -1 -12 -7 -12 -6 0 -11 -6 -11 -14 0 -8 -12 -24 -26 -35 -15 -11 -23 -25
-19 -32 4 -6 2 -15 -6 -19 -20 -13 -30 -1 -19 21 7 13 7 19 0 19 -10 0 -14
-19 -12 -52 1 -13 -5 -18 -22 -18 -13 0 -43 -12 -66 -27 -35 -23 -38 -28 -23
-34 28 -11 30 -11 36 12 4 15 12 20 28 17 31 -4 34 -21 7 -33 -13 -6 -24 -20
-26 -32 -2 -13 -21 -33 -47 -50 -25 -15 -42 -34 -40 -40 6 -18 -10 -16 -25 2
-10 12 -10 15 4 15 9 0 16 4 16 8 0 20 -14 20 -38 2 -38 -30 -71 -23 -40 8 17
17 -2 31 -34 25 -15 -3 -30 -14 -34 -25 -3 -11 -12 -17 -20 -14 -9 3 -16 -4
-20 -19 -7 -29 -29 -32 -70 -10 -26 13 -30 13 -40 0 -9 -12 -13 -11 -24 10 -7
13 -22 25 -34 27 -15 2 -22 11 -24 34 -3 29 -1 31 22 27 38 -8 32 15 -7 25
-38 10 -67 4 -45 -9 21 -14 -26 -11 -57 3 -24 11 -28 20 -38 73 -2 11 -7 -43
-12 -120 -5 -77 -7 -144 -6 -150 1 -5 3 -22 3 -37 1 -15 5 -25 10 -22 4 3 8
-10 8 -28 0 -22 -3 -29 -9 -19 -14 22 -24 -6 -17 -52 8 -64 9 -180 1 -297 -5
-83 1 -193 30 -525 38 -443 69 -651 124 -834 16 -53 34 -118 41 -146 13 -54
44 -156 66 -218 20 -54 18 -77 -7 -77 -11 0 -17 -4 -14 -10 4 -6 -13 -10 -44
-10 -67 0 -82 -7 -75 -34 5 -22 2 -23 -52 -25 -39 -1 -66 -8 -85 -22 -32 -23
-38 -49 -11 -49 13 -1 11 -4 -8 -15 -42 -24 -53 -19 -46 18 6 30 5 30 -8 12
-7 -11 -22 -49 -31 -84 -15 -52 -16 -71 -7 -110 6 -25 14 -68 17 -96 4 -27 22
-126 40 -220 35 -173 90 -336 134 -391 12 -15 21 -34 21 -43 0 -22 41 -92 88
-149 21 -26 60 -83 86 -128 25 -45 58 -94 71 -110 28 -32 68 -111 113 -219 15
-38 45 -95 65 -125 20 -30 59 -89 87 -130 27 -41 69 -102 92 -134 48 -67 49
-67 101 -163 25 -47 65 -96 120 -149 80 -78 84 -80 187 -112 64 -20 124 -32
155 -32 28 1 80 2 116 3 102 2 141 -18 245 -126 96 -100 125 -133 212 -244 97
-123 158 -206 187 -258 82 -142 343 -434 437 -488 24 -14 60 -29 81 -32 21 -4
44 -14 52 -22 8 -7 28 -19 44 -26 30 -13 72 -45 135 -102 18 -16 55 -40 82
-53 27 -13 75 -48 107 -78 31 -30 99 -86 150 -125 50 -39 111 -88 135 -110 23
-22 77 -63 120 -91 42 -28 106 -70 142 -93 81 -54 289 -150 353 -165 27 -6 65
-19 85 -29 22 -11 69 -20 117 -24 44 -3 109 -14 145 -25 36 -11 94 -26 130
-32 226 -41 709 -62 860 -36 85 14 357 15 379 2 20 -12 125 -7 194 9 38 9 128
18 199 21 72 2 134 6 137 9 4 2 59 7 122 10 62 4 143 11 179 16 36 6 94 14
130 18 36 5 85 13 110 19 25 6 97 22 160 36 63 14 149 34 190 46 100 29 254
101 237 112 -23 15 21 36 94 43 38 4 72 11 75 16 3 5 17 10 32 10 17 1 21 3
10 6 -35 9 -18 31 33 43 36 9 48 15 40 23 -6 6 -11 19 -11 29 0 13 -6 17 -22
14 -13 -3 -43 -5 -68 -6 -47 -1 -48 0 7 -38 16 -11 15 -12 -9 -9 -18 3 -33 -2
-44 -14 -19 -21 -49 -25 -59 -8 -4 6 -13 8 -21 5 -9 -3 -16 3 -20 18 -6 23
-34 32 -34 10 0 -6 -6 -14 -14 -17 -8 -3 -12 -15 -9 -29 3 -15 -2 -29 -11 -37
-9 -8 -16 -20 -16 -27 0 -8 -4 -14 -10 -14 -14 0 -13 13 2 28 10 10 8 14 -10
18 -12 4 -22 10 -22 14 0 4 -12 20 -26 36 -17 18 -22 30 -15 32 14 5 -22 26
-62 36 -20 5 -25 3 -21 -7 8 -23 -83 -20 -107 4 -25 25 -29 24 -29 -6 0 -16 6
-25 15 -25 8 0 15 -7 15 -15 0 -23 -26 -18 -44 9 -10 16 -12 26 -4 28 6 2 3
11 -8 23 -10 10 -18 30 -17 44 1 15 -1 18 -3 9 -6 -20 -19 -23 -29 -8 -3 5
-11 7 -18 4 -7 -2 -17 4 -24 15 -11 18 -10 19 13 15 20 -4 24 -1 22 13 -2 10
2 17 10 15 6 -1 12 2 12 8 0 5 -4 10 -9 10 -5 0 -9 14 -9 30 1 17 -6 38 -15
48 -10 10 -17 27 -17 36 0 11 -5 16 -14 13 -16 -6 -15 38 1 68 11 18 -1 65
-16 65 -13 0 -62 53 -54 59 4 3 9 21 11 38 1 25 -2 33 -14 33 -10 0 -14 6 -11
14 3 8 2 30 -4 48 -7 26 -6 35 7 45 8 6 11 14 6 17 -5 3 -12 15 -15 26 -8 32
27 7 46 -32 16 -32 17 -33 17 -7 0 15 -7 29 -15 33 -9 3 -15 18 -15 37 0 20
-4 29 -12 26 -9 -2 -17 17 -24 62 -10 55 -9 67 2 74 8 4 14 14 14 21 0 13 79
14 99 2 5 -3 8 9 6 27 -2 21 -8 33 -20 36 -10 2 -13 6 -8 10 7 3 0 20 -18 41
-20 23 -29 29 -29 18 0 -9 5 -20 10 -23 12 -8 13 -55 1 -74 -8 -13 -12 -13
-26 -1 -14 12 -18 12 -26 -1 -5 -8 -9 -18 -9 -23 0 -6 -5 -5 -12 2 -9 9 -6 18
14 39 29 31 41 70 21 65 -7 -1 -13 2 -13 8 0 5 -16 1 -35 -10 -32 -18 -39 -18
-36 2 0 4 -6 5 -14 2 -21 -8 -19 -21 5 -29 11 -3 20 -10 20 -15 0 -5 3 -17 7
-27 6 -15 4 -16 -9 -6 -8 7 -18 9 -23 5 -4 -4 -4 3 -1 16 6 16 3 22 -8 22 -9
0 -16 -6 -16 -14 0 -8 -5 -18 -11 -22 -7 -4 -9 0 -5 14 9 26 -13 41 -26 18 -5
-9 -13 -14 -19 -11 -5 4 -13 -4 -18 -17 -9 -22 -10 -22 -10 -2 -1 33 -39 39
-47 8 -3 -13 -10 -24 -15 -24 -5 0 -9 -8 -9 -17 -1 -17 -2 -17 -15 1 -8 10
-21 16 -29 13 -9 -4 -18 -2 -22 4 -3 6 -17 14 -31 20 -13 5 -21 13 -18 19 3 5
2 10 -3 10 -6 0 -8 8 -5 19 3 10 0 22 -6 25 -6 4 -11 0 -11 -8 0 -9 -4 -16
-10 -16 -5 0 -10 -7 -10 -16 0 -19 -25 -13 -25 7 -1 8 -6 23 -13 34 -10 17
-13 18 -23 5 -9 -13 -10 -13 -6 2 4 11 -1 18 -16 22 -27 7 -49 -11 -42 -34 4
-12 -1 -19 -15 -23 -23 -6 -60 26 -60 53 0 21 -26 57 -35 48 -4 -4 -8 -34 -10
-68 -2 -52 -1 -59 12 -49 11 10 17 9 26 -1 10 -10 9 -11 -2 -5 -11 6 -13 3 -9
-12 4 -15 -2 -25 -24 -38 -16 -9 -31 -15 -33 -13 -10 10 -11 78 -1 78 6 1 0 7
-14 15 -14 7 -27 23 -30 36 -7 28 -33 39 -28 13 2 -13 -2 -18 -14 -16 -12 2
-16 -2 -12 -13 3 -8 10 -15 15 -15 4 0 6 -6 3 -14 -4 -12 -10 -10 -27 7 -12
12 -21 27 -19 34 3 11 -16 29 -23 21 -2 -2 2 -22 10 -43 8 -22 14 -55 15 -74
0 -33 0 -33 -25 -17 -31 20 -44 20 -62 -1 -13 -17 -14 -16 -10 4 6 27 0 28
-41 7 -36 -18 -35 -15 -22 -48 5 -14 5 -28 1 -31 -5 -2 -9 -23 -9 -46 -1 -49
-2 -50 -29 -43 -15 4 -19 11 -15 27 5 19 3 20 -10 9 -13 -10 -17 -10 -22 3 -4
11 -13 14 -25 10 -11 -3 -22 -1 -26 4 -3 6 -20 8 -38 4 -39 -7 -45 -12 -29
-22 22 -13 2 -43 -25 -38 -16 3 -27 -1 -30 -10 -4 -10 -14 -12 -34 -8 -23 5
-29 3 -29 -10 0 -11 5 -15 15 -11 10 4 15 -1 15 -14 0 -12 -5 -17 -13 -14 -7
2 -21 -2 -32 -11 -17 -13 -18 -16 -5 -25 13 -9 13 -11 1 -19 -21 -14 -131 -9
-131 5 0 16 -46 27 -68 16 -9 -5 -24 -7 -32 -5 -8 2 2 -5 23 -17 20 -11 37
-27 37 -35 0 -19 -3 -19 -42 5 -18 11 -26 20 -18 20 8 0 -10 16 -40 36 -41 27
-61 34 -82 30 -26 -5 -27 -4 -21 26 6 30 5 31 -25 25 -31 -6 -32 -5 -34 31 -1
37 -1 37 -5 5 -3 -19 -10 -33 -18 -33 -25 0 -66 20 -61 29 4 5 -3 7 -14 4 -25
-7 -26 12 -2 26 16 10 16 10 0 11 -9 0 -20 -4 -23 -10 -11 -18 -23 -10 -17 12
4 16 2 19 -8 13 -10 -6 -12 -4 -7 9 5 12 0 19 -16 25 -16 6 -23 18 -25 41 -2
30 0 32 23 28 29 -6 34 11 5 19 -11 3 -20 9 -20 15 0 5 -10 3 -22 -3 -13 -6
-20 -8 -16 -4 4 4 -1 15 -12 24 -23 20 -38 83 -18 79 9 -2 12 8 10 37 -2 22
-7 42 -11 45 -4 3 -11 22 -14 42 -5 32 -2 40 15 49 20 11 20 13 5 24 -16 12
-16 13 2 18 14 3 18 1 14 -9 -6 -16 13 -19 22 -3 4 6 13 8 21 5 8 -3 14 -1 14
5 0 11 -50 32 -58 24 -3 -3 -15 12 -27 32 -21 34 -23 35 -29 15 -13 -40 -33
-21 -27 25 1 6 -8 14 -19 18 -31 10 -26 37 6 29 29 -7 64 22 64 54 0 20 31 54
46 51 29 -5 33 4 4 11 -38 9 -65 -4 -56 -27 5 -12 -7 -18 -29 -13 -5 1 -4 -4
3 -11 17 -18 15 -36 -4 -43 -24 -9 -46 13 -37 38 8 24 6 167 -3 175 -3 3 -12
-3 -20 -14 -14 -19 -15 -17 -12 24 1 33 7 45 20 49 22 5 24 22 3 22 -22 0 -18
15 8 28 16 8 18 11 5 11 -14 1 -16 14 -14 96 3 95 2 96 -25 112 -22 13 -27 22
-23 40 5 19 2 23 -16 23 -17 0 -21 5 -18 18 3 10 -1 27 -8 37 -11 15 -16 16
-29 5 -12 -10 -15 -10 -15 3 0 8 6 17 12 19 10 4 10 11 -1 34 -8 17 -16 24
-18 16 -3 -7 0 -19 6 -26 9 -11 9 -15 -1 -18 -20 -7 -58 4 -57 16 3 25 -2 35
-15 30 -8 -3 -17 -1 -21 5 -3 6 1 11 9 11 17 0 21 17 7 38 -7 11 -9 10 -15 -3
-3 -9 -11 -13 -17 -10 -6 4 -8 13 -5 20 3 8 -10 24 -30 37 -32 22 -45 48 -24
48 14 0 12 44 -2 58 -10 10 -10 15 2 22 12 8 10 10 -7 10 -13 0 -23 -5 -23
-11 0 -5 -4 -7 -10 -4 -5 3 -10 0 -10 -7 0 -8 -5 -6 -11 5 -8 13 -7 22 1 32
10 12 9 16 -3 21 -13 4 -15 19 -11 75 3 56 2 69 -10 69 -21 0 -31 -21 -15 -31
10 -6 11 -9 2 -9 -7 0 -13 -9 -13 -19 0 -11 -4 -23 -10 -26 -6 -4 -10 11 -10
39 0 28 -6 51 -16 61 -17 17 -13 78 7 102 7 7 6 14 -2 19 -8 4 -9 3 -5 -4 4
-7 2 -12 -4 -12 -8 0 -9 10 -5 30 7 32 -5 39 -25 15 -7 -9 -10 -29 -7 -48 3
-19 1 -40 -4 -48 -7 -11 -9 -11 -9 4 0 9 -7 17 -15 17 -8 0 -15 5 -15 10 0 6
5 10 11 10 7 0 9 12 7 31 -4 22 0 33 11 37 22 8 31 23 31 52 -1 22 -2 23 -11
7 -17 -29 -31 -19 -27 21 2 25 -1 36 -9 34 -9 -1 -13 10 -13 33 0 24 -5 35
-15 35 -20 0 -19 19 1 27 14 5 13 9 -7 25 -24 19 -24 19 -1 13 27 -8 29 9 2
21 -14 6 -17 13 -11 23 8 12 12 12 26 -2 21 -22 25 -21 25 3 0 11 -12 26 -27
34 -16 8 -22 15 -15 16 6 0 12 9 12 20 0 11 -3 19 -7 18 -15 -3 -48 16 -70 41
-19 21 -22 34 -18 64 5 35 4 37 -13 28 -23 -12 -32 -5 -32 25 0 16 -4 22 -14
18 -8 -3 -19 4 -26 16 -7 12 -18 19 -26 16 -8 -3 -14 -1 -14 4 0 6 9 10 20 10
23 0 24 4 10 30 -9 16 -8 18 7 13 12 -5 15 -2 10 10 -3 8 -1 18 6 21 7 2 3 5
-9 5 -12 1 -26 12 -32 26 -16 34 -16 33 13 27 15 -2 25 0 25 7 0 6 7 11 16 11
12 0 15 6 10 25 -4 14 -2 25 4 25 5 0 10 6 10 14 0 12 7 12 36 4 20 -5 38 -7
41 -4 9 8 -21 33 -35 28 -6 -2 -12 1 -12 8 0 7 12 9 37 4 30 -6 35 -4 30 9 -4
10 2 17 16 21 26 6 37 -2 17 -14 -8 -5 -11 -12 -7 -16 3 -4 13 -1 22 6 10 9
12 17 5 30 -7 13 -6 20 6 24 9 3 21 3 26 0 6 -4 16 0 22 8 6 8 19 17 29 21 27
10 20 27 -13 27 -16 0 -30 -4 -30 -10 0 -5 -10 -10 -22 -9 l-23 0 23 9 c12 5
22 14 22 20 0 7 -9 9 -22 5 -21 -5 -21 -5 2 9 14 8 29 11 33 7 9 -9 76 19 77
32 0 4 -10 7 -22 7 l-22 0 22 20 c28 26 40 25 45 -3 l4 -22 2 23 c1 16 7 22
24 22 13 0 28 -5 35 -12 9 -9 15 -9 24 0 8 8 8 12 1 12 -12 0 -24 36 -15 44 3
3 10 -1 17 -10 10 -15 13 -15 27 0 9 9 23 16 32 16 8 0 18 5 21 10 3 6 15 10
26 10 10 0 19 4 19 10 0 15 80 32 117 25 18 -3 33 -2 33 3 0 5 14 12 31 16 16
3 37 13 45 21 9 8 25 15 36 15 16 0 18 3 9 14 -9 10 -9 16 -1 21 6 4 14 4 17
1 3 -3 12 -1 20 6 10 8 20 8 38 -2 31 -17 45 -5 20 18 -10 10 -14 11 -10 3 6
-10 4 -12 -4 -7 -9 6 -8 13 6 28 17 19 17 19 -12 12 -17 -4 -36 -11 -43 -17
-7 -6 -28 -10 -47 -9 -28 1 -33 -2 -28 -15 4 -11 3 -14 -5 -9 -7 4 -12 2 -12
-3 0 -6 -9 -11 -20 -11 -22 0 -18 22 8 53 8 9 12 17 7 17 -4 0 -13 -7 -19 -15
-6 -9 -31 -18 -56 -20 -30 -3 -40 -1 -30 5 11 7 6 10 -20 11 -19 1 -27 3 -17
6 9 2 17 8 17 13 0 5 -15 5 -32 0 -76 -19 -98 -20 -98 -5 0 9 -6 12 -16 8 -12
-4 -15 -1 -12 13 2 11 13 20 27 22 18 3 22 0 18 -11 -9 -25 4 -27 23 -4 14 17
15 23 5 27 -10 4 -10 7 1 18 12 11 16 9 25 -12 12 -25 33 -27 23 -3 -2 7 4 22
16 32 18 17 20 17 20 1 0 -10 7 -24 15 -32 13 -14 15 -13 15 8 0 54 10 68 46
65 29 -2 33 -5 28 -22 -5 -18 -4 -18 11 3 9 12 23 22 31 22 8 0 17 7 20 15 4
8 14 15 24 15 10 0 23 7 30 15 7 9 21 13 30 10 11 -3 20 1 24 10 8 22 33 19
39 -5 3 -11 10 -20 15 -20 12 0 10 39 -2 58 -5 8 0 12 12 12 12 0 22 9 25 21
3 12 10 18 16 14 6 -3 11 -1 11 4 0 6 14 11 31 11 28 0 31 -2 25 -25 -7 -27 3
-32 22 -13 6 6 15 8 19 4 4 -4 1 -11 -7 -16 -11 -7 -8 -10 13 -10 27 0 38 22
17 35 -14 9 34 64 79 92 85 52 139 69 153 48 5 -7 14 -6 28 3 24 15 100 5 100
-13 0 -7 9 -15 20 -18 25 -6 28 19 3 27 -15 4 -15 5 2 4 11 0 41 0 68 1 45 1
47 2 46 29 -1 16 -3 20 -6 10 -2 -10 -9 -18 -15 -18 -6 0 -8 10 -4 25 5 19 2
25 -9 25 -9 0 -13 5 -10 10 4 6 10 8 14 6 4 -3 20 6 36 20 33 28 33 28 32 12
-1 -34 4 -46 21 -44 13 1 17 -7 17 -29 0 -37 29 -45 55 -15 l18 21 5 -23 c4
-21 4 -21 6 4 1 31 18 46 27 24 3 -9 10 -16 15 -16 10 0 7 50 -5 68 -4 7 -2
12 4 12 6 0 8 5 5 10 -3 6 1 10 9 10 38 0 43 -98 6 -107 -10 -3 -18 -14 -18
-26 -1 -53 -8 -89 -19 -95 -6 -4 -11 -14 -11 -22 3 -46 -2 -55 -32 -57 -20 -1
-28 2 -24 8 7 12 -13 29 -33 29 -7 0 -13 -6 -13 -14 0 -8 -6 -16 -12 -19 -7
-2 -9 -8 -5 -13 4 -5 12 -2 17 6 5 8 12 11 16 8 7 -8 -33 -68 -47 -68 -5 0 -9
-5 -9 -11 0 -6 10 -3 22 5 21 15 23 14 35 -15 16 -39 17 -66 1 -73 -9 -3 -8
-9 6 -20 10 -9 15 -20 10 -27 -4 -7 -8 -25 -9 -41 -2 -24 0 -28 15 -23 22 7
21 -22 -1 -36 -10 -6 -10 -9 -1 -9 19 0 14 -20 -5 -21 -10 0 -13 -3 -7 -5 5
-2 8 -19 6 -37 -11 -92 -10 -157 3 -157 7 0 16 -7 19 -16 4 -9 9 -14 12 -11 3
3 14 -3 25 -14 10 -10 25 -19 33 -19 24 0 40 -74 19 -91 -10 -9 -13 -8 -13 5
0 9 -4 16 -10 16 -14 0 -13 -7 6 -35 11 -17 12 -25 4 -25 -18 0 -37 -23 -32
-39 3 -8 0 -11 -7 -7 -6 4 -11 2 -11 -4 0 -6 -3 -9 -7 -7 -5 3 -9 -11 -11 -31
-1 -20 -9 -40 -16 -44 -8 -4 -17 -19 -20 -34 -4 -15 -12 -24 -19 -21 -17 6
-48 -48 -35 -61 6 -6 3 -15 -8 -26 -9 -9 -14 -20 -10 -23 3 -4 -1 -17 -9 -30
-9 -13 -17 -44 -18 -68 -1 -25 -6 -45 -11 -45 -4 0 -6 -6 -4 -12 3 -7 2 -40
-2 -73 -4 -33 -5 -64 -2 -69 3 -5 6 -21 7 -35 4 -43 9 -54 33 -77 12 -12 22
-29 22 -37 0 -10 6 -14 15 -11 8 4 17 -1 21 -9 3 -8 16 -18 30 -21 15 -4 24
-14 24 -26 0 -10 5 -22 12 -26 7 -4 8 -3 4 4 -5 8 1 12 14 12 12 0 18 -4 15
-10 -3 -5 1 -11 9 -11 36 -3 40 -5 44 -16 2 -7 -1 -13 -6 -13 -6 0 -8 -10 -4
-22 l5 -22 8 22 c10 27 25 28 39 2 10 -19 4 -25 -22 -21 -15 2 -30 -41 -19
-52 6 -6 11 -7 11 -1 0 5 6 -3 14 -17 7 -15 11 -39 8 -54 -3 -20 -1 -26 7 -21
6 4 15 5 21 1 13 -8 1 -35 -16 -35 -8 0 -14 -4 -14 -10 0 -5 9 -10 20 -10 11
0 20 6 20 14 0 20 47 -3 53 -25 3 -9 19 -20 36 -24 17 -4 31 -11 31 -17 0 -6
7 -16 17 -23 9 -7 13 -17 9 -23 -11 -18 -24 -14 -32 10 -8 27 -29 49 -38 41
-14 -14 -5 -42 16 -49 20 -6 21 -7 4 -19 -11 -8 -13 -15 -7 -20 16 -9 13 -54
-3 -71 -11 -10 -15 -11 -19 -1 -3 9 -8 9 -18 -2 -11 -10 -11 -15 -1 -18 6 -3
12 -10 12 -16 0 -8 -3 -8 -11 0 -6 6 -18 9 -25 6 -21 -8 -17 15 5 27 13 6 18
17 15 32 -2 13 -2 17 2 11 9 -20 24 -15 24 7 0 11 -5 20 -11 20 -8 0 -8 4 0
14 9 11 6 12 -14 8 -14 -2 -22 -8 -19 -13 3 -5 -2 -9 -10 -9 -8 0 -18 5 -22
12 -4 7 -3 8 4 4 7 -4 12 -2 12 3 0 6 -7 11 -16 11 -12 0 -15 -7 -11 -26 4
-21 1 -25 -14 -21 -23 6 -25 -6 -4 -23 8 -7 15 -18 15 -25 0 -8 12 -23 28 -35
l27 -22 -32 6 c-25 6 -34 3 -41 -11 -5 -10 -7 -24 -5 -31 3 -8 -4 -11 -19 -10
-19 3 -24 -2 -26 -27 -2 -16 -11 -34 -19 -41 -9 -6 -16 -24 -15 -42 1 -27 -3
-31 -33 -36 -37 -7 -58 -26 -29 -26 15 0 15 -3 -4 -20 -28 -26 -27 -28 1 -23
22 4 23 2 19 -26 -2 -17 -8 -31 -12 -31 -5 0 -6 9 -3 20 4 14 0 20 -11 20 -9
0 -16 -7 -16 -15 0 -8 -7 -15 -15 -15 -8 0 -15 5 -15 12 0 6 -3 8 -6 5 -4 -4
-2 -12 3 -19 19 -24 21 -57 5 -70 -8 -7 -17 -12 -20 -10 -5 2 -14 -43 -16 -88
0 -14 -8 -28 -16 -32 -12 -5 -12 -7 3 -7 14 -1 8 -11 -23 -43 -56 -59 -109
-140 -117 -180 -3 -18 -10 -39 -16 -45 -6 -9 -5 -18 3 -28 7 -9 9 -26 5 -47
-7 -29 -6 -31 9 -19 9 7 16 21 16 30 0 13 2 13 9 2 5 -8 16 -11 24 -8 9 3 21
-1 27 -9 7 -8 27 -14 46 -14 18 0 35 -4 38 -8 6 -11 86 -2 86 10 0 5 14 0 31
-12 16 -12 33 -19 36 -16 4 3 1 6 -5 6 -6 0 -9 7 -6 15 7 18 30 19 49 3 39
-35 44 -38 51 -27 4 8 9 7 14 -2 6 -9 12 -10 22 -2 12 10 61 9 113 -2 10 -2
28 3 38 13 18 16 20 16 32 -2 13 -18 41 -14 30 5 -4 5 -1 9 4 9 6 0 11 -5 11
-11 0 -8 4 -8 14 0 11 9 15 9 18 -1 4 -11 8 -11 20 0 13 10 19 10 31 -3 10
-10 18 -11 22 -5 4 6 25 10 48 9 23 -1 55 6 72 14 26 14 31 15 45 2 21 -19 29
-19 49 -1 9 8 41 16 71 19 30 2 62 6 70 9 8 3 29 9 45 14 20 6 31 17 33 31 3
19 8 21 34 16 34 -7 54 12 36 34 -8 10 -5 13 10 13 12 0 24 -4 27 -10 3 -5 19
-10 36 -10 16 0 29 -5 29 -11 0 -5 5 -7 11 -4 7 5 4 13 -7 26 -17 19 -18 19
26 32 8 2 23 -3 33 -12 17 -14 19 -14 28 2 7 12 23 17 51 17 29 0 49 7 65 22
20 19 27 20 43 10 20 -12 37 -1 25 17 -3 6 2 14 12 19 15 9 20 24 25 75 1 9 6
17 10 17 4 0 8 7 8 15 0 18 -26 20 -34 3 -5 -10 -7 -10 -12 -1 -3 7 -12 9 -20
6 -8 -3 -14 0 -14 6 0 6 3 11 8 11 4 0 24 4 44 9 21 5 36 5 33 1 -3 -4 2 -11
11 -14 27 -10 35 -7 32 13 -3 22 51 100 70 101 7 0 16 9 20 20 7 20 8 20 42 1
34 -18 35 -18 50 3 16 22 34 58 44 89 3 9 13 17 21 17 9 0 13 5 10 10 -3 6 -2
10 3 10 18 0 43 80 36 116 -5 28 -2 38 12 49 11 7 16 16 12 20 -3 3 9 22 28
40 37 37 48 83 17 70 -45 -19 -64 -18 -70 3 -4 19 -10 21 -48 15 -26 -3 -45
-1 -49 6 -9 15 -27 14 -24 -1 3 -13 -55 -29 -112 -31 -19 -1 -38 -6 -42 -12
-5 -6 -12 -5 -20 3 -16 16 -29 16 -22 -1 3 -9 -15 -17 -58 -25 -35 -7 -79 -17
-99 -23 -20 -5 -46 -9 -57 -9 -24 0 -90 -29 -110 -47 -7 -7 -23 -13 -36 -13
-12 0 -26 -4 -31 -8 -17 -15 -98 -42 -147 -48 -27 -4 -49 -13 -52 -21 -3 -8
-11 -11 -16 -8 -6 4 -16 3 -23 -2 -16 -12 -80 -16 -73 -4 9 15 -18 31 -34 21
-8 -6 -10 -10 -4 -10 6 0 9 -13 6 -30 -6 -39 -43 -37 -96 4 -16 13 -17 18 -6
31 18 22 10 25 -32 16 -32 -8 -37 -6 -42 13 -3 11 -6 24 -6 28 0 10 68 30 80
23 5 -3 10 3 10 15 0 11 7 23 15 26 17 7 20 40 5 49 -15 9 -12 25 5 25 9 0 12
6 9 15 -4 9 0 15 9 15 11 0 13 6 10 21 -4 16 -2 20 8 17 9 -3 13 -16 11 -34
l-3 -29 24 27 c13 16 34 28 46 28 12 0 21 6 21 15 0 9 11 20 24 24 21 9 23 14
18 56 -3 37 -1 46 9 42 8 -2 13 -10 11 -16 -1 -6 3 -11 9 -11 8 0 10 13 6 38
-6 33 -3 39 22 56 19 13 27 25 23 38 -2 10 1 18 7 18 6 0 11 6 11 14 0 8 6 17
13 19 6 3 3 6 -8 7 -14 1 -10 5 15 15 29 11 31 14 12 14 -21 1 -22 3 -8 16 8
8 19 15 24 15 9 0 25 37 23 53 -1 4 5 7 13 7 24 0 29 20 10 34 -17 13 -16 14
5 21 13 4 28 2 34 -4 15 -15 23 -14 40 4 13 13 19 13 47 -1 29 -15 33 -15 48
0 15 15 15 16 -5 16 -28 0 -36 14 -28 48 l6 27 94 1 c52 0 95 -3 95 -7 0 -8
42 1 50 10 16 19 72 51 80 46 6 -4 17 0 25 7 36 33 47 39 77 45 40 8 94 39
102 58 3 9 18 15 36 15 18 0 33 6 36 15 4 8 14 15 23 15 9 0 30 9 46 20 23 16
26 20 11 20 -10 0 -35 -5 -55 -11 -31 -9 -42 -8 -67 7 -52 32 -96 73 -89 84 3
5 0 10 -7 10 -8 0 -20 9 -28 19 -7 11 -17 18 -22 15 -4 -3 -19 3 -33 12 -18
12 -36 15 -65 10 -34 -5 -40 -4 -40 12 0 15 -6 18 -29 14 -20 -3 -28 -8 -24
-18 3 -9 -2 -14 -16 -14 -12 0 -21 6 -21 14 0 15 -21 26 -63 31 -16 3 -25 0
-22 -5 4 -6 1 -10 -4 -10 -6 0 -11 5 -11 10 0 6 -10 11 -22 11 -17 1 -19 2 -5
6 21 6 22 29 1 37 -27 10 -36 7 -29 -11 4 -13 3 -15 -5 -7 -8 8 -8 19 0 39 8
20 7 31 -1 41 -7 9 -10 33 -6 64 6 47 5 49 -13 38 -15 -10 -22 -10 -32 0 -16
16 -5 24 36 24 36 0 50 16 40 43 -4 8 -1 15 4 15 21 0 60 48 51 62 -11 17 -11
31 0 24 11 -7 34 20 27 32 -3 6 0 15 8 21 8 7 11 22 8 38 -4 21 -2 25 12 20
10 -4 16 -1 16 8 0 8 -7 15 -15 15 -14 0 -19 11 -12 26 1 3 -6 10 -16 15 -9 6
-15 14 -12 19 3 5 -3 15 -14 22 -11 8 -18 22 -16 34 2 10 4 19 5 19 1 0 2 17
4 38 2 29 -2 44 -18 59 -12 10 -22 25 -22 31 -4 29 -17 56 -25 51 -5 -3 -9 -1
-9 4 0 4 -17 28 -37 52 -22 25 -33 45 -26 47 8 3 6 16 -7 41 -10 20 -21 45
-24 55 -3 10 -15 17 -31 17 -15 0 -25 6 -25 15 0 11 -5 12 -23 6 -29 -11 -50
0 -45 25 2 12 -2 18 -11 16 -9 -2 -12 4 -8 18 4 17 2 20 -13 15 -19 -6 -34 9
-35 35 0 8 -10 14 -25 15 -14 0 -26 4 -27 9 -3 12 -54 37 -64 30 -16 -10 -9 9
9 23 13 10 13 13 2 11 -9 -2 -14 4 -14 15 1 9 -3 17 -10 17 -16 0 -40 31 -43
55 -6 45 -10 58 -24 69 -9 6 -24 30 -35 53 -10 23 -24 43 -31 43 -6 0 -13 5
-15 11 -2 7 -15 4 -35 -7 -37 -22 -45 -17 -46 29 -1 34 -2 34 -23 20 -17 -11
-28 -12 -43 -4 -11 6 -33 11 -50 11 -16 0 -33 5 -36 10 -4 6 -16 8 -27 4 -16
-5 -20 -3 -15 10 12 30 -63 80 -98 65 -30 -11 -35 -11 -35 6 0 8 -4 15 -9 15
-5 0 -11 -7 -15 -15 -3 -8 -15 -15 -26 -15 -15 0 -20 7 -20 25 0 25 -23 35
-35 15 -3 -6 -11 -10 -18 -10 -8 0 -8 3 1 12 7 7 12 16 12 22 0 5 -3 6 -7 3
-3 -4 -12 -2 -20 5 -7 6 -16 8 -19 5 -10 -10 -46 34 -40 49 7 19 -12 67 -24
59 -5 -3 -10 -2 -10 4 0 5 -10 11 -22 13 -28 4 -38 58 -14 77 8 7 12 19 9 27
-3 8 0 14 7 14 7 0 10 6 7 13 -3 7 1 24 9 38 20 36 18 116 -3 128 -10 6 -13
11 -8 11 6 0 -1 6 -14 13 -17 8 -28 26 -35 57 -11 44 -11 44 -71 58 -80 18
-123 23 -232 25 -90 2 -108 7 -108 30 0 12 -19 13 -95 2 -25 -4 -58 -6 -75 -6
-16 0 -32 -3 -35 -7 -9 -12 -71 -42 -64 -31 8 14 -31 3 -62 -17 -24 -15 -34
-10 -34 18 0 19 -1 19 -34 -1 -34 -21 -82 -29 -71 -12 3 5 1 12 -4 16 -5 3
-14 -2 -19 -10 -4 -9 -19 -17 -33 -19 -13 -1 -34 -8 -46 -14 -28 -15 -36 -15
-27 1 6 9 5 9 -8 -1 -8 -7 -42 -17 -74 -23 -32 -6 -67 -17 -77 -24 -10 -7 -27
-11 -38 -8 -10 3 -29 -1 -41 -9 -14 -9 -63 -18 -118 -22 -52 -4 -98 -12 -101
-18 -4 -6 -16 -8 -28 -5 -12 3 -21 1 -21 -4 0 -5 -20 -9 -44 -9 -34 0 -46 -4
-50 -17 -3 -10 -3 5 0 32 3 28 10 54 15 60 14 14 11 28 -5 22 -8 -3 -20 0 -26
8 -8 10 -8 14 2 18 7 3 3 6 -8 6 -14 1 -24 -7 -27 -19 -3 -11 -13 -20 -22 -20
-12 0 -15 5 -10 21 7 20 4 21 -39 18 -32 -3 -46 0 -46 8 0 7 7 13 15 13 8 0
15 7 15 16 0 11 -5 14 -16 10 -9 -3 -20 -6 -26 -6 -6 0 -8 -13 -6 -30 3 -18 0
-31 -9 -34 -19 -8 -16 -26 4 -26 14 0 14 -3 5 -12 -22 -22 -32 11 -30 94 1 43
4 76 6 73 7 -7 42 25 42 38 0 5 -7 7 -15 3 -15 -5 -65 36 -65 54 0 6 -5 10
-11 10 -8 0 -8 -5 1 -15 7 -8 9 -15 4 -15 -5 0 -4 -4 3 -8 9 -5 10 -17 4 -37
-7 -24 -9 -25 -10 -8 -1 12 -7 23 -13 25 -8 3 -12 22 -10 52 1 38 -1 47 -13
42 -11 -4 -9 3 5 29 11 19 15 37 10 40 -5 3 0 15 12 27 19 19 19 22 6 32 -14
10 -14 16 -2 45 18 43 18 44 -5 32 -10 -6 -22 -7 -25 -3 -4 4 -15 7 -24 7 -9
0 -17 6 -17 13 0 6 -4 11 -10 10 -5 -2 -9 -7 -7 -11 1 -5 -3 -7 -10 -5 -7 3
-18 -2 -24 -10 -9 -13 -12 -9 -18 21 -5 29 -11 36 -34 39 -22 3 -28 9 -33 41
-3 21 -11 43 -18 50 -6 6 -11 17 -11 24 0 18 -32 53 -47 53 -15 0 -17 16 -3
25 6 4 8 11 5 16 -4 5 9 9 27 9 22 0 29 3 19 9 -9 6 -11 20 -6 50 6 39 6 41
-19 41 -19 0 -26 5 -26 19 0 19 -53 51 -84 51 -9 0 -16 5 -16 10 0 6 -4 10
-10 10 -5 0 -7 -7 -4 -15 4 -8 2 -15 -4 -15 -14 0 -22 53 -10 68 16 19 -7 41
-24 24 -7 -7 -22 -12 -34 -12 -17 0 -20 5 -16 25 2 15 0 25 -7 25 -6 0 -11 -4
-11 -10 0 -5 -7 -10 -15 -10 -17 0 -20 16 -5 25 8 5 7 11 -1 21 -9 11 -8 15 5
20 9 3 16 15 16 26 0 17 -3 18 -15 8 -12 -10 -15 -10 -15 4 0 9 -4 16 -9 16
-5 0 -7 -9 -4 -20 9 -32 -3 -23 -31 24 -28 47 -32 76 -16 92 6 6 8 18 4 27 -4
13 -10 14 -24 7 -14 -7 -21 -6 -27 3 -4 8 -18 19 -29 25 -28 15 -40 79 -18
103 13 14 13 18 -1 29 -22 18 -11 26 35 28 29 1 40 -2 40 -13 0 -19 52 -20 80
-3 16 10 22 9 38 -7 24 -27 35 -66 16 -58 -15 6 -19 -12 -5 -21 5 -3 7 -16 4
-27 -4 -15 -2 -20 6 -18 7 3 12 8 11 12 0 4 6 15 15 23 12 13 19 13 30 4 8 -6
19 -9 26 -5 8 6 7 10 -2 16 -9 6 0 9 26 9 26 0 35 3 27 9 -8 4 -14 12 -15 17
-1 5 -7 8 -14 6 -7 -2 -10 3 -7 11 3 9 -3 16 -15 20 -24 6 -22 26 7 57 15 17
20 31 15 49 -10 43 -24 50 -19 9 2 -21 0 -41 -6 -44 -16 -10 -27 17 -17 43 12
32 12 32 -11 26 -12 -3 -20 -14 -20 -27 0 -17 -2 -18 -10 -6 -5 8 -10 11 -10
5 0 -5 -6 -3 -13 6 -7 9 -19 18 -27 22 -10 4 -8 6 7 6 12 1 34 6 50 13 15 6
34 12 41 14 30 6 23 14 -12 14 -23 0 -39 5 -42 15 -4 8 -15 15 -26 15 -14 0
-18 6 -16 23 3 19 -1 22 -24 19 -20 -3 -28 1 -28 12 0 9 5 16 10 16 6 0 10 7
10 16 0 10 -5 12 -12 7 -7 -4 -5 5 5 20 19 29 23 87 6 87 -6 0 -9 7 -6 15 4 8
2 17 -4 20 -5 4 -8 1 -7 -6 5 -18 -45 -29 -60 -12 -11 12 -10 13 11 8 17 -5
24 -2 24 9 0 8 -6 17 -14 20 -17 7 -17 42 0 50 10 5 10 7 0 12 -7 3 -13 11
-13 17 0 8 4 7 12 -1 16 -16 38 -15 38 2 0 8 16 16 40 20 22 3 40 10 40 15 0
14 -36 41 -45 34 -7 -8 4 38 12 47 2 2 8 -2 12 -9 5 -8 11 -9 15 -3 3 5 -1 15
-9 22 -11 9 -12 16 -5 25 6 7 7 20 4 29 -6 16 -8 16 -25 0 -11 -9 -19 -28 -19
-41 0 -14 -6 -23 -15 -23 -10 0 -15 10 -15 34 0 19 -5 38 -10 41 -7 4 -7 13 0
26 9 15 7 21 -5 25 -12 5 -15 18 -13 55 2 34 7 48 15 44 8 -2 15 7 19 23 10
45 13 52 24 52 5 0 9 -10 7 -21 -1 -12 4 -24 11 -26 7 -3 12 4 12 16 0 11 4
22 9 25 10 6 6 54 -5 64 -4 4 -4 -1 -1 -10 9 -27 -18 -22 -31 5 -11 20 -12 18
-7 -13 4 -29 3 -31 -5 -12 -5 12 -14 22 -20 22 -5 0 -10 10 -10 23 0 18 2 19
10 7 7 -10 10 -11 10 -2 0 7 -11 17 -24 22 -13 5 -31 19 -40 32 -13 18 -16 19
-16 5 0 -9 4 -17 10 -17 5 0 8 -13 7 -30 -1 -17 -8 -30 -15 -30 -7 0 -12 6
-11 13 3 26 -2 37 -16 37 -16 0 -21 -15 -7 -23 4 -2 0 -2 -8 1 -8 2 -20 5 -26
5 -5 0 -8 13 -6 27 3 21 12 30 35 36 17 5 32 16 34 24 3 11 2 12 -4 3 -15 -21
-53 -11 -53 13 0 21 28 53 39 45 3 -3 7 3 9 12 2 12 -3 17 -17 17 -14 0 -21 6
-21 19 0 14 5 18 20 14 29 -8 25 12 -5 25 -14 6 -25 16 -25 22 0 7 -13 9 -35
4 -31 -5 -35 -4 -35 15 0 12 -6 21 -16 21 -8 0 -13 4 -9 9 6 11 -34 9 -52 -2
-13 -8 -45 2 -39 12 2 3 -2 12 -10 19 -8 7 -14 9 -14 5 0 -4 -7 0 -14 10 -14
18 -11 52 7 74 10 14 0 20 -41 25 -23 3 -28 24 -4 22 6 -1 12 2 12 7 0 5 -7 9
-15 9 -8 0 -15 5 -15 11 0 6 8 8 19 4 10 -3 23 1 30 9 7 8 18 13 25 10 13 -5
31 24 21 34 -3 3 -5 0 -5 -6 0 -7 -6 -12 -14 -12 -9 0 -12 7 -9 19 4 16 11 18
46 13 46 -5 59 -18 51 -44 -6 -22 2 -23 22 -4 7 8 19 16 25 18 8 3 10 13 4 34
l-8 29 -7 -30 c-5 -24 -8 -27 -14 -13 -4 9 -5 22 -1 28 4 6 1 17 -5 25 -8 10
-9 15 -2 15 6 0 9 11 6 25 -4 22 -1 25 23 26 22 1 24 3 7 6 -17 3 -20 9 -16
25 3 12 1 19 -4 15 -6 -3 -15 3 -22 14 -10 15 -10 19 2 19 8 0 18 5 21 11 4 6
1 9 -7 7 -13 -3 -18 3 -18 20 0 4 14 8 32 9 17 1 39 12 50 23 20 21 34 27 23
10 -11 -18 27 -24 40 -7 17 23 23 21 20 -7 -2 -14 3 -27 11 -30 9 -3 12 -1 9
4 -3 6 5 10 19 10 33 0 33 -13 0 -35 -15 -9 -23 -12 -20 -6 5 7 1 9 -8 5 -9
-3 -16 -9 -16 -13 0 -4 -15 -12 -33 -19 -22 -8 -33 -18 -33 -32 0 -13 6 -19
16 -17 8 1 14 10 14 20 -2 19 30 24 41 7 11 -18 82 68 76 94 -4 19 10 42 28
43 14 1 17 -3 14 -18 -6 -23 12 -25 25 -3 6 11 11 13 16 5 10 -16 26 -14 26 4
0 9 -11 26 -25 39 -24 23 -25 24 -5 29 12 3 20 13 20 26 0 12 5 21 10 21 6 0
10 7 10 15 0 16 -27 20 -49 6 -8 -5 -11 -16 -8 -25 3 -8 2 -18 -3 -21 -6 -4
-10 5 -10 19 0 21 -5 26 -25 26 -14 0 -25 4 -25 9 0 15 18 22 22 9 2 -6 10 -8
17 -4 9 6 9 11 1 21 -8 10 -4 14 15 19 14 4 31 4 37 0 7 -4 8 -3 4 4 -4 7 -2
12 3 12 6 0 11 -6 11 -14 0 -8 5 -18 12 -22 8 -5 9 -2 5 9 -4 12 -1 17 11 17
22 0 42 19 42 39 0 10 -7 8 -25 -9 -14 -13 -28 -20 -32 -17 -3 4 2 14 13 22
16 12 17 14 3 15 -9 0 -19 6 -22 13 -2 7 -17 13 -32 15 -37 3 -59 21 -45 37 5
6 7 15 3 18 -12 12 -23 7 -24 -10 0 -15 -2 -15 -9 2 -13 29 -12 33 9 40 29 9
32 30 5 31 -13 1 -24 -2 -24 -8 0 -5 5 -6 10 -3 6 3 10 3 10 -2 0 -4 -18 -18
-39 -29 -39 -21 -39 -21 -44 -2 -6 22 -27 15 -27 -9 0 -12 -3 -13 -14 -4 -18
15 -8 53 13 49 9 -2 28 7 41 20 14 13 18 22 10 22 -7 0 -19 -8 -26 -17 -7 -10
-16 -15 -20 -11 -4 4 -2 13 4 20 8 11 2 14 -29 14 -21 1 -39 -2 -39 -6 0 -4
-11 -10 -25 -12 -18 -4 -25 -1 -25 10 0 11 -7 13 -32 8 -30 -6 -31 -5 -13 8
16 11 17 18 8 37 -10 20 -12 21 -12 5 -1 -15 -6 -17 -28 -11 -16 4 -35 8 -43
9 -8 0 -21 7 -28 14 -16 15 -29 15 -37 2z m265 -101 c0 -5 -7 -9 -15 -9 -15 0
-20 12 -9 23 8 8 24 -1 24 -14z m-470 -19 c0 -5 -5 -10 -11 -10 -5 0 -7 5 -4
10 3 6 8 10 11 10 2 0 4 -4 4 -10z m445 -19 c-3 -6 -11 -11 -17 -11 -6 0 -6 6
2 15 14 17 26 13 15 -4z m130 -41 c3 -5 -1 -10 -9 -10 -9 0 -16 5 -16 10 0 6
4 10 9 10 6 0 13 -4 16 -10z m95 -60 c0 -5 -2 -10 -4 -10 -3 0 -8 5 -11 10 -3
6 -1 10 4 10 6 0 11 -4 11 -10z m-100 -110 c0 -5 -5 -10 -11 -10 -5 0 -7 5 -4
10 3 6 8 10 11 10 2 0 4 -4 4 -10z m-980 -4 c0 -3 -4 -8 -10 -11 -5 -3 -10 -1
-10 4 0 6 5 11 10 11 6 0 10 -2 10 -4z m845 -108 c6 -4 2 -8 -7 -8 -10 0 -18
7 -18 17 0 9 3 12 8 7 4 -5 12 -12 17 -16z m125 -9 c0 -5 -4 -9 -10 -9 -5 0
-10 7 -10 16 0 8 5 12 10 9 6 -3 10 -10 10 -16z m-1110 -133 c0 -8 -4 -17 -9
-21 -12 -7 -24 12 -16 25 9 15 25 12 25 -4z m1085 4 c-3 -5 -10 -10 -16 -10
-5 0 -9 5 -9 10 0 6 7 10 16 10 8 0 12 -4 9 -10z m-476 -39 c-15 -5 -22 6 -14
19 6 9 10 9 16 -1 5 -8 4 -15 -2 -18z m75 11 c2 -4 -4 -8 -14 -9 -11 -1 -22 2
-25 8 -4 5 3 9 14 9 11 0 22 -4 25 -8z m46 -12 c0 -5 -5 -10 -11 -10 -6 0 -9
-7 -5 -15 3 -10 -1 -15 -13 -15 -10 0 -22 7 -25 16 -3 8 -2 13 3 10 5 -3 14 1
21 9 14 17 30 20 30 5z m180 -8 c0 -10 -22 -32 -32 -32 -5 0 -3 9 4 20 13 20
28 27 28 12z m-134 -17 c18 -15 18 -15 -5 -13 -14 2 -26 9 -29 16 -5 17 10 15
34 -3z m-106 -22 c0 -12 -33 -43 -47 -43 -19 0 -16 10 9 31 21 19 38 24 38 12z
m-60 -7 c0 -3 -4 -8 -10 -11 -5 -3 -10 -1 -10 4 0 6 5 11 10 11 6 0 10 -2 10
-4z m143 -3 c4 -3 -1 -12 -11 -19 -9 -7 -13 -16 -9 -21 5 -4 17 2 27 14 14 18
19 20 24 8 3 -8 1 -15 -4 -15 -6 0 -10 -7 -10 -15 0 -9 -6 -12 -15 -9 -8 4
-15 1 -15 -5 0 -6 -7 -11 -15 -11 -10 0 -15 7 -13 18 2 10 -3 17 -12 17 -8 0
-14 -7 -12 -17 1 -9 -2 -19 -8 -23 -5 -3 -10 1 -10 9 0 22 -9 20 -30 -6 -20
-25 -24 -24 -34 9 -6 18 -4 22 8 17 16 -6 76 24 76 39 0 5 9 5 20 2 11 -4 20
-2 20 4 0 12 13 15 23 4z m-183 -69 c0 -8 -4 -12 -10 -9 -5 3 -10 10 -10 16 0
5 5 9 10 9 6 0 10 -7 10 -16z m140 -35 c0 -10 15 -7 60 9 13 5 13 3 1 -11 -7
-9 -22 -17 -32 -17 -10 0 -21 -9 -24 -20 -10 -32 -21 -23 -21 15 1 19 4 35 8
35 5 0 8 -5 8 -11z m-1020 -89 c0 -5 -4 -10 -10 -10 -5 0 -10 5 -10 10 0 6 5
10 10 10 6 0 10 -4 10 -10z m-20 -326 c0 -8 -4 -13 -9 -9 -5 3 -12 -3 -14 -12
-3 -11 -5 -8 -6 10 -1 18 4 27 14 27 8 0 15 -7 15 -16z m1272 -86 c-7 -7 -12
-8 -12 -2 0 14 12 26 19 19 2 -3 -1 -11 -7 -17z m48 6 c0 -8 -4 -12 -10 -9 -5
3 -10 10 -10 16 0 5 5 9 10 9 6 0 10 -7 10 -16z m-1240 -19 c0 -8 -4 -15 -10
-15 -5 0 -10 7 -10 15 0 8 5 15 10 15 6 0 10 -7 10 -15z m1240 -75 c0 -5 -2
-10 -4 -10 -3 0 -8 5 -11 10 -3 6 -1 10 4 10 6 0 11 -4 11 -10z m150 -70 c0
-5 -2 -10 -4 -10 -3 0 -8 5 -11 10 -3 6 -1 10 4 10 6 0 11 -4 11 -10z m-40
-80 c0 -5 -2 -10 -4 -10 -3 0 -8 5 -11 10 -3 6 -1 10 4 10 6 0 11 -4 11 -10z
m-30 -50 c0 -5 -4 -10 -10 -10 -5 0 -10 5 -10 10 0 6 5 10 10 10 6 0 10 -4 10
-10z m27 -172 c-3 -8 -6 -5 -6 6 -1 11 2 17 5 13 3 -3 4 -12 1 -19z m-1632
-136 c-11 -11 -34 8 -28 24 6 15 7 15 20 -1 7 -10 11 -21 8 -23z m-33 -20 c-7
-2 -12 -12 -12 -23 0 -19 -28 -59 -42 -59 -10 0 -10 34 -1 44 4 4 8 15 8 24 0
11 7 16 18 14 9 -2 17 2 17 8 0 6 5 8 12 4 9 -6 9 -9 0 -12z m48 -36 c0 -14
-29 -30 -38 -21 -3 3 0 5 6 5 6 0 9 7 6 15 -4 9 0 15 10 15 9 0 16 -6 16 -14z
m1666 -52 c-3 -9 -6 -18 -6 -20 0 -2 -7 -4 -15 -4 -18 0 -19 12 -3 28 17 17
31 15 24 -4z m-1954 -106 c-7 -7 -12 -8 -12 -2 0 14 12 26 19 19 2 -3 -1 -11
-7 -17z m1863 -80 c6 -4 2 -8 -7 -8 -10 0 -18 7 -18 17 0 9 3 12 8 7 4 -5 12
-12 17 -16z m185 -28 c0 -5 -2 -10 -4 -10 -3 0 -8 5 -11 10 -3 6 -1 10 4 10 6
0 11 -4 11 -10z m-55 -70 c-3 -5 -1 -10 4 -10 6 0 11 -4 11 -10 0 -5 -10 -10
-21 -10 -18 0 -19 -2 -9 -15 13 -16 3 -20 -18 -6 -17 10 4 61 25 61 8 0 11 -4
8 -10z m-101 -54 c-7 -17 -34 -23 -34 -6 0 9 32 31 38 26 1 -2 0 -11 -4 -20z
m-2002 -28 c-7 -7 -12 -8 -12 -2 0 14 12 26 19 19 2 -3 -1 -11 -7 -17z m2148
2 c0 -5 -4 -10 -10 -10 -5 0 -10 5 -10 10 0 6 5 10 10 10 6 0 10 -4 10 -10z
m-2140 -39 c0 -12 -20 -25 -27 -18 -7 7 6 27 18 27 5 0 9 -4 9 -9z m2197 -21
c1 -12 -4 -20 -13 -20 -12 0 -12 4 -4 20 6 11 12 20 13 20 2 0 3 -9 4 -20z
m-323 -125 c-4 -8 -10 -15 -15 -15 -4 0 -6 7 -3 15 4 8 10 15 15 15 4 0 6 -7
3 -15z m193 -221 c-9 -9 -28 6 -21 18 4 6 10 6 17 -1 6 -6 8 -13 4 -17z
m-3011 -62 c19 -12 24 -65 8 -86 -8 -11 -12 -28 -8 -38 8 -26 -5 -42 -23 -27
-12 11 -13 9 -8 -14 6 -22 4 -27 -10 -27 -13 0 -16 5 -11 23 12 38 22 147 14
147 -4 0 -5 7 -2 15 7 16 22 19 40 7z m3105 -22 c5 0 9 -3 9 -7 0 -5 -11 -8
-25 -8 -14 0 -25 6 -25 14 0 8 6 11 16 7 9 -3 20 -6 25 -6z m-40 -63 c-16 -16
-26 0 -10 19 9 11 15 12 17 4 2 -6 -1 -17 -7 -23z m-2831 13 c0 -5 13 -7 30
-3 18 3 30 1 30 -5 0 -19 -17 -22 -49 -11 -29 10 -43 29 -21 29 6 0 10 -4 10
-10z m2870 -10 c0 -11 -4 -20 -8 -20 -4 0 -8 9 -8 20 0 11 4 20 8 20 4 0 8 -9
8 -20z m-2755 0 c3 -5 2 -10 -4 -10 -5 0 -13 5 -16 10 -3 6 -2 10 4 10 5 0 13
-4 16 -10z m-125 -25 c0 -8 -4 -15 -10 -15 -5 0 -7 7 -4 15 4 8 8 15 10 15 2
0 4 -7 4 -15z m-333 -27 c-3 -8 -6 -5 -6 6 -1 11 2 17 5 13 3 -3 4 -12 1 -19z
m198 12 c3 -5 1 -10 -4 -10 -6 0 -11 5 -11 10 0 6 2 10 4 10 3 0 8 -4 11 -10z
m212 -24 c-4 -9 -14 -16 -24 -15 -11 0 -13 3 -5 6 6 2 12 14 12 26 0 16 3 18
11 10 7 -7 9 -19 6 -27z m-247 -16 c0 -5 -2 -10 -4 -10 -3 0 -8 5 -11 10 -3 6
-1 10 4 10 6 0 11 -4 11 -10z m3260 -1 c0 -5 -7 -9 -16 -9 -13 0 -15 -7 -10
-30 4 -22 2 -30 -8 -30 -14 0 -32 53 -23 67 7 11 57 13 57 2z m-3290 -69 c0
-5 -5 -10 -11 -10 -5 0 -7 5 -4 10 3 6 8 10 11 10 2 0 4 -4 4 -10z m-15 -40
c3 -5 13 -6 22 -3 11 4 14 3 9 -5 -8 -13 -35 -16 -61 -6 -13 5 -14 8 -3 15 17
11 26 11 33 -1z m3511 -405 c-11 -8 -22 -12 -25 -9 -6 6 19 24 34 24 6 -1 1
-7 -9 -15z m4 -81 c0 -17 -22 -14 -28 4 -2 7 3 12 12 12 9 0 16 -7 16 -16z
m-103 -206 c-3 -8 -6 -5 -6 6 -1 11 2 17 5 13 3 -3 4 -12 1 -19z m107 -13 c3
-8 1 -15 -4 -15 -6 0 -10 7 -10 15 0 8 2 15 4 15 2 0 6 -7 10 -15z m96 -106
c0 -6 -4 -7 -10 -4 -5 3 -10 11 -10 16 0 6 5 7 10 4 6 -3 10 -11 10 -16z m137
-41 c-3 -8 -6 -5 -6 6 -1 11 2 17 5 13 3 -3 4 -12 1 -19z m1758 -327 c3 -5 1
-12 -5 -16 -5 -3 -10 1 -10 9 0 18 6 21 15 7z m-405 -72 c0 -17 -4 -20 -29
-14 -23 5 -29 2 -34 -14 -3 -14 -13 -21 -29 -20 -17 1 -19 2 -5 6 12 3 17 12
15 26 -3 19 3 23 37 28 22 3 41 7 43 8 1 0 2 -8 2 -20z m200 -287 c0 -4 -6
-14 -12 -20 -10 -10 -10 -15 1 -21 8 -5 11 -17 7 -28 -4 -12 -1 -25 9 -33 18
-15 20 -40 2 -40 -13 0 -47 50 -47 69 0 6 7 11 16 11 14 0 14 1 0 16 -12 12
-13 20 -6 35 11 19 30 26 30 11z m30 -32 c0 -5 -4 -10 -10 -10 -5 0 -10 5 -10
10 0 6 5 10 10 10 6 0 10 -4 10 -10z m12 -56 c-20 -15 -37 -2 -29 21 5 13 10
13 26 3 18 -11 18 -13 3 -24z m-684 -4 c9 -5 29 -14 45 -20 25 -9 38 -30 18
-30 -5 0 -7 -9 -4 -19 3 -13 -2 -23 -16 -30 -12 -7 -21 -17 -21 -24 0 -20 -92
-93 -135 -107 -22 -7 -49 -16 -60 -20 -40 -15 -128 -40 -131 -37 -2 1 3 22 11
45 21 61 29 142 17 185 -11 38 -3 48 17 23 13 -16 26 -15 59 3 12 6 32 9 42 6
14 -4 20 -2 20 9 0 18 16 21 25 5 7 -11 64 -3 80 12 11 11 12 11 33 -1z m617
-40 c3 -5 1 -10 -4 -10 -6 0 -11 5 -11 10 0 6 2 10 4 10 3 0 8 -4 11 -10z
m-935 -20 c0 -5 -8 -10 -17 -10 -15 0 -16 2 -3 10 19 12 20 12 20 0z m457 -22
c-3 -7 -5 -2 -5 12 0 14 2 19 5 13 2 -7 2 -19 0 -25z m-520 7 c0 -8 -4 -15 -9
-15 -4 0 -8 7 -8 15 0 8 4 15 8 15 5 0 9 -7 9 -15z m1186 -40 c0 -6 -7 -11
-16 -13 -12 -3 -15 1 -11 13 7 17 25 17 27 0z m-1123 -53 c0 -15 -44 -29 -70
-22 -24 6 -24 6 -5 18 23 13 75 16 75 4z m500 -102 c0 -5 -2 -10 -4 -10 -3 0
-8 5 -11 10 -3 6 -1 10 4 10 6 0 11 -4 11 -10z m-245 -90 c3 -5 -1 -10 -9 -10
-9 0 -16 5 -16 10 0 6 4 10 9 10 6 0 13 -4 16 -10z m2008 -20 c3 -11 1 -18 -4
-14 -5 3 -9 12 -9 20 0 20 7 17 13 -6z m-2208 -260 c3 -5 2 -10 -4 -10 -5 0
-13 5 -16 10 -3 6 -2 10 4 10 5 0 13 -4 16 -10z m2377 -287 c-8 -23 -22 -3
-22 30 l0 32 13 -25 c8 -14 12 -31 9 -37z m-2982 -62 c0 -5 -7 -11 -14 -14
-10 -4 -13 -1 -9 9 6 15 23 19 23 5z m2850 -227 c0 -8 -5 -12 -10 -9 -6 4 -8
11 -5 16 9 14 15 11 15 -7z m-179 -148 c1 5 5 -18 9 -51 7 -48 5 -63 -7 -77
-9 -10 -20 -15 -26 -11 -5 3 -7 1 -3 -5 12 -19 -14 -24 -46 -8 -38 20 -38 20
-38 0 0 -24 -24 -11 -30 17 -4 16 -8 20 -14 11 -4 -6 -5 -16 -2 -21 3 -5 -1
-14 -9 -21 -12 -10 -18 -10 -31 1 -13 10 -17 10 -24 -1 -13 -22 -64 -1 -68 28
-3 16 2 22 16 22 17 0 19 5 16 29 -4 23 0 32 16 41 11 6 18 15 15 21 -9 13 9
11 23 -3 10 -10 15 -10 21 1 6 8 19 12 35 9 15 -3 31 0 37 9 8 8 16 10 23 4 7
-6 20 -3 36 9 23 18 26 18 38 3 6 -9 13 -13 13 -7z m349 -16 c0 -5 -4 -10 -10
-10 -5 0 -10 5 -10 10 0 6 5 10 10 10 6 0 10 -4 10 -10z m110 0 c0 -5 -8 -10
-17 -10 -15 0 -16 2 -3 10 19 12 20 12 20 0z m-3240 -39 c0 -6 -4 -13 -10 -16
-5 -3 -10 1 -10 9 0 9 5 16 10 16 6 0 10 -4 10 -9z m2480 -11 c0 -5 -7 -10
-15 -10 -8 0 -15 5 -15 10 0 6 7 10 15 10 8 0 15 -4 15 -10z m-2510 -50 c0
-10 6 -20 13 -23 8 -3 6 -11 -9 -27 l-21 -22 1 50 c0 28 4 48 8 45 5 -2 8 -13
8 -23z m30 14 c0 -8 -4 -12 -10 -9 -5 3 -10 10 -10 16 0 5 5 9 10 9 6 0 10 -7
10 -16z m-95 -10 c13 -5 14 -8 3 -15 -19 -13 -28 -11 -28 6 0 17 2 18 25 9z
m2571 -9 c-3 -20 -16 -31 -16 -13 0 13 8 28 16 28 1 0 1 -7 0 -15z m24 -75 c0
-5 -7 -7 -15 -4 -8 4 -15 8 -15 10 0 2 7 4 15 4 8 0 15 -4 15 -10z m80 0 c0
-5 -4 -10 -10 -10 -5 0 -10 5 -10 10 0 6 5 10 10 10 6 0 10 -4 10 -10z m-40
-159 c-35 -45 -128 -131 -141 -131 -5 0 -6 7 -3 15 4 8 10 15 15 15 5 0 9 7 9
15 0 9 7 18 16 22 8 3 13 12 10 20 -3 8 -1 11 4 8 13 -8 13 1 0 26 -9 17 -8
18 12 10 13 -4 34 -4 48 0 14 4 19 7 13 8 -7 1 -13 6 -13 12 0 5 4 8 8 5 4 -2
14 -1 22 5 31 19 31 8 0 -30z m358 -110 c11 -7 11 -9 -1 -14 -16 -6 -27 0 -27
15 0 10 11 10 28 -1z m-2722 -89 c-9 -9 -37 8 -31 18 5 8 11 7 21 -1 8 -6 12
-14 10 -17z m24 -37 c0 -8 -4 -15 -10 -15 -5 0 -7 7 -4 15 4 8 8 15 10 15 2 0
4 -7 4 -15z m-10 -66 c0 -5 -7 -9 -15 -9 -15 0 -20 12 -9 23 8 8 24 -1 24 -14z
m1802 3 c4 -13 -1 -18 -16 -19 -12 -1 -16 1 -9 4 7 2 9 11 6 19 -3 8 -1 14 5
14 5 0 12 -8 14 -18z m-1802 -54 c0 -5 -4 -8 -10 -8 -5 0 -10 10 -10 23 0 18
2 19 10 7 5 -8 10 -18 10 -22z m1910 -98 c0 -5 -5 -10 -11 -10 -5 0 -7 5 -4
10 3 6 8 10 11 10 2 0 4 -4 4 -10z m26 -145 c15 -14 24 -29 20 -33 -4 -4 -16
3 -26 16 -10 12 -23 22 -29 22 -6 0 -11 5 -11 10 0 17 18 11 46 -15z m313 -24
c-7 -23 -15 -41 -20 -41 -12 0 -21 34 -10 38 6 2 11 8 11 13 0 11 23 39 28 34
2 -2 -2 -21 -9 -44z m131 28 c0 -5 -4 -9 -10 -9 -5 0 -10 7 -10 16 0 8 5 12
10 9 6 -3 10 -10 10 -16z m898 -100 c-2 -6 -7 -10 -11 -10 -4 1 -23 1 -42 1
-19 0 -35 5 -35 10 0 6 21 10 46 10 28 0 44 -4 42 -11z m67 -19 c3 -5 -3 -10
-15 -10 -12 0 -18 5 -15 10 3 6 10 10 15 10 5 0 12 -4 15 -10z m-1515 -4 c0
-11 -19 -15 -25 -6 -3 5 1 10 9 10 9 0 16 -2 16 -4z m157 -2 c-3 -3 -12 -4
-19 -1 -8 3 -5 6 6 6 11 1 17 -2 13 -5z m1263 -24 c0 -5 -12 -10 -27 -10 -22
0 -25 2 -13 10 20 13 40 13 40 0z m-1040 -24 c0 -3 -4 -8 -10 -11 -5 -3 -10
-1 -10 4 0 6 5 11 10 11 6 0 10 -2 10 -4z m-260 -25 c0 -4 -7 -8 -15 -8 -16 0
-20 9 -9 20 8 8 24 -1 24 -12z m29 -34 c6 -8 8 -17 4 -20 -7 -8 -33 11 -33 24
0 13 16 11 29 -4z m161 -25 c0 -13 -23 -32 -39 -32 -11 0 -10 4 4 20 19 21 35
26 35 12z m-74 -17 c10 -8 14 -15 7 -15 -19 0 -43 11 -43 21 0 13 14 11 36 -6z
m149 -15 c3 -5 2 -10 -4 -10 -5 0 -13 5 -16 10 -3 6 -2 10 4 10 5 0 13 -4 16
-10z m-5 -60 c0 -5 -4 -10 -10 -10 -5 0 -10 5 -10 10 0 6 5 10 10 10 6 0 10
-4 10 -10z m30 0 c0 -5 -2 -10 -4 -10 -3 0 -8 5 -11 10 -3 6 -1 10 4 10 6 0
11 -4 11 -10z m-1762 -52 c-3 -7 -13 -15 -23 -16 -15 -4 -16 -2 -4 12 17 19
32 21 27 4z m49 -40 c-3 -8 -6 -5 -6 6 -1 11 2 17 5 13 3 -3 4 -12 1 -19z
m-46 -31 c-10 -9 -11 -8 -5 6 3 10 9 15 12 12 3 -3 0 -11 -7 -18z m2789 -1 c0
-3 -4 -8 -10 -11 -5 -3 -10 -1 -10 4 0 6 5 11 10 11 6 0 10 -2 10 -4z m-3372
-471 c-3 -3 -9 2 -12 12 -6 14 -5 15 5 6 7 -7 10 -15 7 -18z m-73 -58 c4 -15
12 -27 17 -27 5 0 3 -7 -6 -15 -18 -19 -24 -19 -42 -1 -10 10 -11 17 -3 21 8
5 8 10 0 18 -8 8 -14 8 -23 -1 -18 -18 -78 -16 -78 3 0 17 27 20 32 4 6 -19
47 8 59 38 10 26 10 26 24 6 7 -11 17 -32 20 -46z m-80 -67 c8 0 15 -7 15 -17
0 -15 2 -15 19 1 16 14 23 15 40 6 12 -6 20 -19 19 -28 -2 -11 5 -18 20 -20
14 -2 22 -10 22 -24 0 -13 5 -18 14 -15 10 4 13 -7 13 -49 0 -29 6 -60 12 -68
9 -10 9 -16 1 -21 -7 -4 -9 -18 -6 -31 4 -14 2 -24 -4 -24 -5 0 -10 7 -10 15
0 28 -16 15 -18 -15 -2 -26 1 -30 23 -30 22 0 25 -4 24 -32 -1 -18 -3 -25 -6
-15 -6 22 -11 22 -35 -5 -12 -15 -21 -19 -24 -12 -3 7 -14 10 -25 7 -15 -4
-17 -8 -8 -20 7 -8 18 -12 25 -9 7 3 16 1 19 -4 3 -5 12 -7 20 -4 10 4 18 -4
25 -22 6 -16 16 -32 22 -35 18 -11 -13 -34 -47 -36 -23 -1 -26 1 -12 8 21 12
22 45 2 53 -12 4 -14 0 -9 -22 l6 -27 -30 33 c-34 35 -42 39 -42 19 0 -8 -14
-12 -40 -12 -25 0 -40 4 -40 12 0 8 11 11 30 9 17 -2 33 0 36 5 3 5 -1 9 -9 9
-8 0 -20 14 -27 31 -8 18 -18 28 -26 25 -16 -6 -31 14 -16 23 18 11 -14 44
-36 36 -15 -4 -22 0 -27 15 -9 27 0 36 20 20 14 -11 19 -7 16 13 -1 4 7 3 18
-3 27 -14 29 -13 42 11 10 20 9 21 -12 15 -67 -20 -141 -6 -81 15 35 12 41 23
17 33 -8 3 -15 12 -15 21 0 11 7 14 28 10 18 -3 21 -3 9 3 -24 10 -49 60 -35
68 6 4 14 1 18 -6 6 -9 10 -6 15 9 4 13 1 28 -5 36 -7 8 -11 15 -9 16 2 0 12
2 22 4 25 5 34 15 14 15 -19 0 -20 1 -11 25 6 16 8 16 16 1 5 -9 16 -16 23
-16z m885 -190 c0 -5 -5 -10 -11 -10 -5 0 -7 5 -4 10 3 6 8 10 11 10 2 0 4 -4
4 -10z m-960 -10 c0 -5 -4 -10 -10 -10 -5 0 -10 5 -10 10 0 6 5 10 10 10 6 0
10 -4 10 -10z m936 -57 c-11 -11 -17 4 -9 23 7 18 8 18 11 1 2 -10 1 -21 -2
-24z m1409 -43 c3 -5 1 -10 -4 -10 -6 0 -11 5 -11 10 0 6 2 10 4 10 3 0 8 -4
11 -10z m118 -25 c-3 -9 -8 -14 -10 -11 -3 3 -2 9 2 15 9 16 15 13 8 -4z m47
-30 c0 -8 -2 -15 -4 -15 -2 0 -6 7 -10 15 -3 8 -1 15 4 15 6 0 10 -7 10 -15z
m55 -5 c3 -5 -1 -10 -9 -10 -9 0 -16 5 -16 10 0 6 4 10 9 10 6 0 13 -4 16 -10z
m-1560 -40 c-3 -5 -11 -10 -16 -10 -6 0 -7 5 -4 10 3 6 11 10 16 10 6 0 7 -4
4 -10z m1103 -2 c-6 -18 -28 -21 -28 -4 0 9 7 16 16 16 9 0 14 -5 12 -12z
m186 -17 c9 -14 -12 -61 -26 -61 -9 0 -9 3 -2 8 20 14 24 41 6 51 -16 10 -16
10 0 11 9 0 19 -4 22 -9z m-154 -11 c0 -5 -2 -10 -4 -10 -3 0 -8 5 -11 10 -3
6 -1 10 4 10 6 0 11 -4 11 -10z m346 -16 c-3 -8 -1 -25 5 -36 13 -24 5 -35
-15 -19 -19 16 -16 71 3 71 8 0 11 -6 7 -16z m-2186 -4 c0 -5 -4 -10 -10 -10
-5 0 -10 5 -10 10 0 6 5 10 10 10 6 0 10 -4 10 -10z m1910 0 c0 -5 -2 -10 -4
-10 -3 0 -8 5 -11 10 -3 6 -1 10 4 10 6 0 11 -4 11 -10z m180 -10 c0 -5 -4
-10 -10 -10 -5 0 -10 5 -10 10 0 6 5 10 10 10 6 0 10 -4 10 -10z m-1303 -83
c-6 -20 -27 -19 -27 2 0 14 5 19 15 14 9 -3 14 -10 12 -16z m57 -33 c3 -9 -2
-14 -14 -14 -11 0 -20 2 -20 4 0 2 -3 11 -6 19 -4 12 0 14 15 10 11 -3 22 -11
25 -19z m366 -134 c0 -5 -2 -10 -4 -10 -3 0 -8 5 -11 10 -3 6 -1 10 4 10 6 0
11 -4 11 -10z m1577 -422 c-3 -8 -6 -5 -6 6 -1 11 2 17 5 13 3 -3 4 -12 1 -19z
m293 -198 c0 -5 -2 -10 -4 -10 -3 0 -8 5 -11 10 -3 6 -1 10 4 10 6 0 11 -4 11
-10z"/>
<path d="M1080 7076 c0 -9 7 -16 16 -16 9 0 14 5 12 12 -6 18 -28 21 -28 4z"/>
<path d="M7300 3731 c0 -9 24 -21 41 -21 5 0 9 7 9 15 0 18 -16 20 -23 3 -4
-10 -6 -10 -6 0 -1 14 -21 17 -21 3z"/>
<path d="M4715 1770 c3 -5 10 -10 16 -10 5 0 9 5 9 10 0 6 -7 10 -16 10 -8 0
-12 -4 -9 -10z"/>
<path d="M4761 1594 c0 -11 3 -14 6 -6 3 7 2 16 -1 19 -3 4 -6 -2 -5 -13z"/>
<path d="M4060 9850 c0 -11 5 -20 10 -20 6 0 10 9 10 20 0 11 -4 20 -10 20 -5
0 -10 -9 -10 -20z"/>
<path d="M4185 9800 c-19 -7 -19 -8 -2 -15 19 -8 31 -2 26 13 -2 5 -13 6 -24
2z"/>
<path d="M3168 9733 c6 -2 18 -2 25 0 6 3 1 5 -13 5 -14 0 -19 -2 -12 -5z"/>
<path d="M3170 9699 c0 -5 5 -7 10 -4 6 3 10 8 10 11 0 2 -4 4 -10 4 -5 0 -10
-5 -10 -11z"/>
<path d="M4160 9640 c0 -5 9 -10 20 -10 11 0 20 5 20 10 0 6 -9 10 -20 10 -11
0 -20 -4 -20 -10z"/>
<path d="M4225 9570 c3 -5 10 -10 16 -10 5 0 9 5 9 10 0 6 -7 10 -16 10 -8 0
-12 -4 -9 -10z"/>
<path d="M4245 9554 c-23 -18 -26 -24 -14 -29 11 -4 15 -19 14 -50 -1 -25 2
-45 7 -45 5 0 7 4 3 9 -3 5 0 13 6 16 6 4 8 18 5 31 -5 18 -2 24 11 25 11 0
13 3 6 6 -7 2 -13 9 -13 14 0 6 4 8 9 4 15 -9 20 9 7 26 -10 15 -14 14 -41 -7z"/>
<path d="M2991 9554 c0 -11 3 -14 6 -6 3 7 2 16 -1 19 -3 4 -6 -2 -5 -13z"/>
<path d="M2948 9528 c9 -9 15 -9 24 0 9 9 7 12 -12 12 -19 0 -21 -3 -12 -12z"/>
<path d="M4221 9464 c0 -11 3 -14 6 -6 3 7 2 16 -1 19 -3 4 -6 -2 -5 -13z"/>
<path d="M4180 9440 c0 -5 5 -10 10 -10 6 0 10 5 10 10 0 6 -4 10 -10 10 -5 0
-10 -4 -10 -10z"/>
<path d="M4102 9390 c-9 -15 -8 -19 4 -24 23 -9 24 -8 24 13 0 28 -14 33 -28
11z"/>
<path d="M3910 9373 c0 -13 5 -23 10 -23 13 0 13 11 0 30 -8 12 -10 11 -10 -7z"/>
<path d="M4150 9349 c0 -11 5 -17 10 -14 6 3 10 13 10 21 0 8 -4 14 -10 14 -5
0 -10 -9 -10 -21z"/>
<path d="M4208 9353 c7 -3 16 -2 19 1 4 3 -2 6 -13 5 -11 0 -14 -3 -6 -6z"/>
<path d="M4120 9340 c-13 -8 -12 -10 3 -10 9 0 17 5 17 10 0 12 -1 12 -20 0z"/>
<path d="M2796 9311 c-4 -5 -3 -17 0 -26 6 -15 8 -14 25 1 11 9 19 21 19 26 0
11 -37 10 -44 -1z"/>
<path d="M4203 9295 c-6 -14 -7 -25 -2 -25 5 0 9 5 9 10 0 6 10 10 21 10 18 0
19 2 9 15 -17 21 -23 19 -37 -10z"/>
<path d="M2720 9300 c0 -5 5 -10 10 -10 6 0 10 5 10 10 0 6 -4 10 -10 10 -5 0
-10 -4 -10 -10z"/>
<path d="M3970 9299 c0 -5 5 -7 10 -4 6 3 10 8 10 11 0 2 -4 4 -10 4 -5 0 -10
-5 -10 -11z"/>
<path d="M4300 9250 c0 -5 7 -7 15 -4 8 4 15 8 15 10 0 2 -7 4 -15 4 -8 0 -15
-4 -15 -10z"/>
<path d="M4041 9174 c0 -11 3 -14 6 -6 3 7 2 16 -1 19 -3 4 -6 -2 -5 -13z"/>
<path d="M3810 9125 c0 -8 5 -15 10 -15 6 0 10 7 10 15 0 8 -4 15 -10 15 -5 0
-10 -7 -10 -15z"/>
<path d="M3766 9114 c-9 -24 -7 -36 6 -32 13 5 22 48 9 48 -5 0 -12 -7 -15
-16z"/>
<path d="M3830 9085 c0 -16 16 -20 24 -6 3 5 -1 11 -9 15 -9 3 -15 0 -15 -9z"/>
<path d="M3964 9055 c-7 -17 3 -35 19 -35 8 0 8 3 -2 9 -9 6 -10 11 -2 15 6 4
11 11 11 17 0 14 -20 11 -26 -6z"/>
<path d="M4036 9043 c-6 -14 -5 -15 5 -6 7 7 10 15 7 18 -3 3 -9 -2 -12 -12z"/>
<path d="M3930 9029 c0 -5 5 -7 10 -4 6 3 10 8 10 11 0 2 -4 4 -10 4 -5 0 -10
-5 -10 -11z"/>
<path d="M4026 8995 c-3 -9 -6 -22 -5 -28 0 -7 5 -1 10 12 5 13 8 26 5 28 -2
2 -6 -3 -10 -12z"/>
<path d="M3850 8974 c0 -8 5 -12 10 -9 6 3 10 10 10 16 0 5 -4 9 -10 9 -5 0
-10 -7 -10 -16z"/>
<path d="M3890 8955 c0 -8 5 -15 10 -15 6 0 10 7 10 15 0 8 -4 15 -10 15 -5 0
-10 -7 -10 -15z"/>
<path d="M3922 8958 c3 -7 12 -14 21 -16 12 -2 15 1 11 12 -7 19 -38 22 -32 4z"/>
<path d="M3930 8920 c0 -5 5 -10 10 -10 6 0 10 5 10 10 0 6 -4 10 -10 10 -5 0
-10 -4 -10 -10z"/>
<path d="M4037 8831 c-3 -14 -1 -18 9 -14 8 3 14 11 14 19 0 21 -17 17 -23 -5z"/>
<path d="M2511 8824 c0 -11 3 -14 6 -6 3 7 2 16 -1 19 -3 4 -6 -2 -5 -13z"/>
<path d="M2450 8800 c0 -5 5 -10 10 -10 6 0 10 5 10 10 0 6 -4 10 -10 10 -5 0
-10 -4 -10 -10z"/>
<path d="M1980 8699 c0 -5 5 -7 10 -4 6 3 10 8 10 11 0 2 -4 4 -10 4 -5 0 -10
-5 -10 -11z"/>
<path d="M4238 8673 c7 -3 16 -2 19 1 4 3 -2 6 -13 5 -11 0 -14 -3 -6 -6z"/>
<path d="M2520 8650 c0 -5 5 -10 10 -10 6 0 10 5 10 10 0 6 -4 10 -10 10 -5 0
-10 -4 -10 -10z"/>
<path d="M2590 8637 c0 -8 6 -14 14 -14 8 0 12 6 9 14 -3 7 -9 13 -14 13 -5 0
-9 -6 -9 -13z"/>
<path d="M4230 8540 c-8 -5 -12 -11 -10 -14 3 -2 14 2 24 10 22 15 10 19 -14
4z"/>
<path d="M4280 8535 c-11 -13 -12 -19 -3 -22 7 -2 9 -12 6 -21 -5 -13 -3 -14
6 -6 7 6 11 24 9 39 -3 27 -4 27 -18 10z"/>
<path d="M2640 8510 c0 -5 7 -10 16 -10 8 0 12 5 9 10 -3 6 -10 10 -16 10 -5
0 -9 -4 -9 -10z"/>
<path d="M2426 8442 c-9 -15 2 -52 15 -52 11 0 11 17 0 44 -5 14 -10 16 -15 8z"/>
<path d="M4091 8424 c0 -11 3 -14 6 -6 3 7 2 16 -1 19 -3 4 -6 -2 -5 -13z"/>
<path d="M4114 8369 c3 -18 1 -38 -5 -45 -15 -18 -1 -18 17 0 10 11 12 21 5
39 -6 14 -7 28 -4 31 4 3 1 6 -7 6 -9 0 -11 -9 -6 -31z"/>
<path d="M2399 8314 c-3 -5 -3 -22 1 -39 5 -25 7 -27 11 -10 6 22 -5 64 -12
49z"/>
<path d="M4112 8280 c0 -14 2 -19 5 -12 2 6 2 18 0 25 -3 6 -5 1 -5 -13z"/>
<path d="M4240 8250 c0 -5 9 -10 21 -10 11 0 17 5 14 10 -3 6 -13 10 -21 10
-8 0 -14 -4 -14 -10z"/>
<path d="M2398 8235 c-8 -9 3 -45 13 -45 5 0 9 6 9 13 0 17 -15 39 -22 32z"/>
<path d="M2325 8197 c-4 -10 -5 -21 -1 -24 10 -10 18 4 13 24 -4 17 -4 17 -12
0z"/>
<path d="M2154 8059 c-14 -29 -14 -30 2 -27 9 1 23 13 31 24 12 19 12 22 -2
27 -10 4 -20 -4 -31 -24z"/>
<path d="M4215 8079 c-10 -15 3 -25 16 -12 7 7 7 13 1 17 -6 3 -14 1 -17 -5z"/>
<path d="M2165 8010 c-5 -16 -10 -18 -24 -10 -26 13 -61 -14 -61 -48 l0 -27
23 33 c12 17 27 30 34 28 6 -3 24 -1 40 4 15 4 23 9 16 9 -7 1 -10 8 -7 16 4
8 1 15 -4 15 -6 0 -14 -9 -17 -20z"/>
<path d="M4192 8006 c-29 -17 -38 -26 -25 -26 6 0 21 9 34 20 27 22 24 24 -9
6z"/>
<path d="M4260 7964 c0 -8 5 -12 10 -9 6 4 8 11 5 16 -9 14 -15 11 -15 -7z"/>
<path d="M4155 7910 c-3 -5 -2 -10 4 -10 5 0 13 5 16 10 3 6 2 10 -4 10 -5 0
-13 -4 -16 -10z"/>
<path d="M1086 7694 c-3 -9 -6 -25 -6 -37 0 -27 16 -11 25 26 8 29 -8 39 -19
11z"/>
<path d="M4112 7537 c-10 -12 -8 -16 10 -20 28 -8 31 -5 15 17 -11 16 -15 16
-25 3z"/>
<path d="M1800 7516 c0 -9 7 -12 20 -9 11 3 17 9 14 14 -8 14 -34 10 -34 -5z"/>
<path d="M1855 7520 c-3 -5 -1 -10 4 -10 6 0 11 5 11 10 0 6 -2 10 -4 10 -3 0
-8 -4 -11 -10z"/>
<path d="M4010 7450 c0 -5 5 -10 11 -10 5 0 7 5 4 10 -3 6 -8 10 -11 10 -2 0
-4 -4 -4 -10z"/>
<path d="M4030 7419 c0 -5 5 -7 10 -4 6 3 10 8 10 11 0 2 -4 4 -10 4 -5 0 -10
-5 -10 -11z"/>
<path d="M997 7376 c-4 -10 -5 -21 -2 -24 9 -9 17 6 13 25 -3 17 -4 17 -11 -1z"/>
<path d="M1080 7310 c0 -5 7 -10 15 -10 8 0 15 5 15 10 0 6 -7 10 -15 10 -8 0
-15 -4 -15 -10z"/>
<path d="M4193 7265 c-9 -25 4 -29 17 -6 7 15 7 21 0 21 -6 0 -13 -7 -17 -15z"/>
<path d="M1070 7262 c0 -5 7 -15 15 -22 12 -10 19 -10 27 -2 7 7 9 13 5 13 -4
1 -10 2 -14 3 -5 1 -14 5 -20 9 -7 5 -13 4 -13 -1z"/>
<path d="M1288 7173 c6 -2 18 -2 25 0 6 3 1 5 -13 5 -14 0 -19 -2 -12 -5z"/>
<path d="M4300 7119 c0 -5 5 -7 10 -4 6 3 10 8 10 11 0 2 -4 4 -10 4 -5 0 -10
-5 -10 -11z"/>
<path d="M4460 7040 c0 -5 5 -10 11 -10 5 0 7 5 4 10 -3 6 -8 10 -11 10 -2 0
-4 -4 -4 -10z"/>
<path d="M4435 7019 c-10 -15 3 -25 16 -12 7 7 7 13 1 17 -6 3 -14 1 -17 -5z"/>
<path d="M4444 6937 c3 -10 6 -24 6 -30 0 -8 4 -7 12 1 10 10 8 16 -6 30 -18
16 -19 16 -12 -1z"/>
<path d="M8643 6934 c2 -12 2 -26 -2 -31 -3 -5 -44 -19 -91 -32 -47 -12 -96
-27 -110 -33 -69 -29 -110 -36 -165 -29 -44 6 -58 5 -62 -6 -3 -7 -16 -13 -30
-13 -16 0 -27 -7 -30 -18 -3 -14 -12 -17 -34 -14 -22 3 -29 0 -29 -12 0 -16
-19 -23 -74 -28 -18 -2 -30 -9 -32 -20 -2 -19 -70 -85 -95 -93 -10 -3 -19 -18
-21 -33 -2 -21 -11 -29 -39 -37 -19 -5 -47 -18 -62 -27 -14 -10 -31 -18 -37
-18 -13 0 -13 -17 0 -25 7 -4 -4 -25 -26 -51 -20 -25 -34 -48 -31 -51 4 -3 0
-12 -8 -20 -23 -23 -36 -82 -22 -104 9 -15 8 -21 -7 -32 -11 -8 -20 -29 -22
-55 -3 -36 -1 -42 15 -42 40 0 52 -10 39 -33 -11 -21 -11 -21 13 -5 100 71
137 93 157 95 12 1 35 10 50 21 40 28 63 34 78 21 11 -9 18 -8 32 4 22 19 68
17 64 -3 -2 -8 -8 -17 -14 -19 -20 -7 -77 -74 -71 -84 3 -5 -4 -6 -17 -2 -15
5 -20 4 -16 -4 4 -6 17 -11 29 -11 17 -1 19 -2 7 -9 -8 -5 -24 -11 -35 -13
-11 -1 -29 -14 -39 -27 -11 -13 -35 -30 -55 -38 -44 -18 -190 -140 -227 -189
-21 -26 -28 -50 -31 -92 -3 -31 -9 -67 -15 -79 -9 -18 -8 -27 4 -40 9 -10 19
-28 22 -40 8 -26 21 -30 29 -9 4 11 17 13 48 9 37 -5 41 -4 36 11 -6 15 2 17
73 15 67 -1 78 -4 69 -16 -13 -15 -7 -26 16 -29 8 -1 15 4 15 12 0 17 17 19
23 2 3 -10 10 -10 30 1 29 16 36 41 12 41 -8 0 -15 5 -15 10 0 6 5 10 10 10 6
0 10 5 10 10 0 6 -10 10 -22 10 -22 1 -22 1 -4 12 11 6 29 12 40 14 87 11 155
24 179 33 16 6 41 11 57 11 16 0 51 14 77 30 35 23 55 29 75 25 22 -5 34 0 63
29 20 20 44 36 55 36 11 0 25 12 32 28 10 21 19 26 39 24 14 -2 31 4 39 12 19
23 31 19 21 -6 -7 -19 -1 -32 33 -70 71 -81 96 -115 96 -131 0 -8 7 -17 15
-21 21 -8 19 1 -15 55 -65 100 -88 232 -56 310 7 19 17 50 20 69 4 24 -3 12
-23 -35 -18 -43 -35 -69 -43 -67 -26 7 -27 27 -2 53 28 29 23 39 -19 39 -22 0
-28 4 -23 15 7 19 -27 38 -42 23 -23 -23 -242 -2 -242 24 0 4 -27 6 -59 5 -32
-1 -57 -5 -54 -9 2 -5 -2 -8 -9 -8 -9 0 -9 -3 2 -10 10 -7 11 -10 2 -10 -7 0
-15 7 -18 15 -4 8 -15 15 -25 15 -12 0 -19 7 -19 18 1 19 33 62 47 62 5 0 19
13 30 28 13 17 65 51 127 83 146 75 164 85 179 98 8 6 32 10 53 9 22 0 49 4
61 10 25 14 83 -2 83 -22 0 -7 9 -21 19 -30 11 -10 20 -25 20 -34 3 -73 -1
-126 -10 -149 -8 -21 5 -11 48 36 32 35 63 78 69 95 5 17 20 53 32 80 34 75
30 163 -10 239 -21 39 -19 97 4 124 27 33 -24 67 -122 80 -32 5 -92 40 -113
67 -5 7 -7 2 -4 -10z m-569 -823 c7 -10 -52 -26 -61 -17 -3 3 5 10 18 15 31
13 37 13 43 2z m184 -147 c26 -7 31 -51 7 -60 -9 -4 -15 -19 -15 -35 0 -21 -5
-29 -17 -29 -10 0 -29 -9 -43 -20 -14 -11 -32 -20 -41 -20 -8 0 -24 -7 -35
-15 -34 -25 -42 -18 -46 43 -2 31 -8 65 -12 74 -5 12 0 25 18 43 22 22 33 25
93 25 37 0 78 -3 91 -6z m-300 -86 c-3 -23 -48 -41 -48 -20 0 24 14 42 32 42
14 0 19 -6 16 -22z"/>
<path d="M4732 6675 c0 -16 2 -22 5 -12 2 9 2 23 0 30 -3 6 -5 -1 -5 -18z"/>
<path d="M4610 6640 c0 -5 5 -10 11 -10 5 0 7 5 4 10 -3 6 -8 10 -11 10 -2 0
-4 -4 -4 -10z"/>
<path d="M4715 6600 c-3 -5 1 -10 9 -10 9 0 16 5 16 10 0 6 -4 10 -9 10 -6 0
-13 -4 -16 -10z"/>
<path d="M8150 6169 c0 -5 5 -7 10 -4 6 3 10 8 10 11 0 2 -4 4 -10 4 -5 0 -10
-5 -10 -11z"/>
<path d="M5235 6130 c-3 -5 -1 -10 4 -10 6 0 11 5 11 10 0 6 -2 10 -4 10 -3 0
-8 -4 -11 -10z"/>
<path d="M4993 6103 c-18 -7 -16 -33 2 -33 8 0 15 9 15 20 0 11 -1 20 -2 19
-2 0 -9 -3 -15 -6z"/>
<path d="M7600 5970 c0 -5 5 -10 10 -10 6 0 10 5 10 10 0 6 -4 10 -10 10 -5 0
-10 -4 -10 -10z"/>
<path d="M7990 5580 c0 -5 17 -10 38 -9 30 0 33 2 17 9 -28 12 -55 12 -55 0z"/>
<path d="M7100 5478 c0 -16 5 -28 10 -28 13 0 13 20 0 40 -8 12 -10 9 -10 -12z"/>
<path d="M8900 5460 c6 -11 13 -20 16 -20 2 0 0 9 -6 20 -6 11 -13 20 -16 20
-2 0 0 -9 6 -20z"/>
<path d="M7176 5425 c-3 -8 -1 -15 4 -15 6 0 10 7 10 15 0 8 -2 15 -4 15 -2 0
-6 -7 -10 -15z"/>
<path d="M8940 5360 c0 -28 12 -60 22 -60 6 0 7 11 3 28 -7 31 -25 54 -25 32z"/>
<path d="M6555 4977 c-4 -10 -5 -21 -1 -24 10 -10 18 4 13 24 -4 17 -4 17 -12
0z"/>
<path d="M6499 4968 c15 -21 31 -23 31 -6 0 6 -3 8 -7 5 -3 -4 -13 -1 -22 6
-14 11 -14 10 -2 -5z"/>
<path d="M7665 4950 c-3 -5 -1 -10 4 -10 6 0 11 5 11 10 0 6 -2 10 -4 10 -3 0
-8 -4 -11 -10z"/>
<path d="M6470 4930 c0 -5 5 -10 11 -10 5 0 7 5 4 10 -3 6 -8 10 -11 10 -2 0
-4 -4 -4 -10z"/>
<path d="M6430 4900 c0 -5 5 -10 11 -10 5 0 7 5 4 10 -3 6 -8 10 -11 10 -2 0
-4 -4 -4 -10z"/>
<path d="M7780 4780 c0 -5 5 -10 11 -10 5 0 7 5 4 10 -3 6 -8 10 -11 10 -2 0
-4 -4 -4 -10z"/>
<path d="M5475 4660 c3 -5 11 -10 16 -10 6 0 7 5 4 10 -3 6 -11 10 -16 10 -6
0 -7 -4 -4 -10z"/>
<path d="M7881 4514 c0 -11 3 -14 6 -6 3 7 2 16 -1 19 -3 4 -6 -2 -5 -13z"/>
<path d="M6493 4500 c-24 -19 -21 -30 8 -30 22 0 32 16 22 34 -7 12 -11 11
-30 -4z"/>
<path d="M6523 4442 c-10 -6 -10 -12 2 -28 14 -18 14 -18 15 9 0 30 0 30 -17
19z"/>
<path d="M5268 4353 c7 -3 16 -2 19 1 4 3 -2 6 -13 5 -11 0 -14 -3 -6 -6z"/>
<path d="M7910 4241 c0 -5 7 -11 14 -14 10 -4 13 -1 9 9 -6 15 -23 19 -23 5z"/>
<path d="M4870 4110 c0 -5 4 -10 9 -10 6 0 13 5 16 10 3 6 -1 10 -9 10 -9 0
-16 -4 -16 -10z"/>
<path d="M9184 3896 c-3 -8 -4 -31 -2 -52 3 -36 4 -35 8 14 5 53 4 63 -6 38z"/>
<path d="M4966 3791 c-4 -7 -5 -15 -2 -18 9 -9 19 4 14 18 -4 11 -6 11 -12 0z"/>
<path d="M5000 3680 c-12 -8 -12 -10 2 -15 19 -7 38 1 38 16 0 12 -21 11 -40
-1z"/>
<path d="M9162 3645 c0 -16 2 -22 5 -12 2 9 2 23 0 30 -3 6 -5 -1 -5 -18z"/>
<path d="M5001 3514 c0 -11 3 -14 6 -6 3 7 2 16 -1 19 -3 4 -6 -2 -5 -13z"/>
<path d="M9152 3490 c0 -14 2 -19 5 -12 2 6 2 18 0 25 -3 6 -5 1 -5 -13z"/>
<path d="M5081 3434 c0 -11 3 -14 6 -6 3 7 2 16 -1 19 -3 4 -6 -2 -5 -13z"/>
<path d="M9148 3385 c-4 -22 -8 -56 -8 -75 1 -29 2 -32 11 -17 5 9 9 43 7 75
-3 57 -3 57 -10 17z"/>
<path d="M8671 3223 c-1 -62 -6 -80 -41 -149 -22 -43 -40 -82 -40 -86 0 -5 11
-8 24 -8 14 0 31 -7 40 -15 17 -18 37 -20 34 -3 -4 18 60 34 83 20 26 -16 54
-16 42 1 -5 6 -8 24 -7 40 2 18 -2 27 -12 27 -16 0 -19 26 -4 35 12 8 13 95 1
95 -5 0 -11 9 -14 20 -3 14 -14 20 -31 20 -20 0 -26 5 -27 23 0 12 -3 16 -6
10 -8 -21 -21 -15 -31 15 -9 23 -11 16 -11 -45z"/>
<path d="M5097 3176 c-6 -16 2 -28 14 -20 12 7 11 34 0 34 -5 0 -11 -6 -14
-14z"/>
<path d="M6680 3150 c0 -5 5 -10 10 -10 6 0 10 5 10 10 0 6 -4 10 -10 10 -5 0
-10 -4 -10 -10z"/>
<path d="M7500 3060 c0 -5 5 -10 10 -10 6 0 10 5 10 10 0 6 -4 10 -10 10 -5 0
-10 -4 -10 -10z"/>
<path d="M6773 3022 c10 -10 14 -21 11 -25 -3 -3 -1 -14 4 -24 9 -16 11 -16
17 -2 9 23 -12 69 -31 69 -16 0 -16 -1 -1 -18z"/>
<path d="M9122 2930 c0 -14 2 -19 5 -12 2 6 2 18 0 25 -3 6 -5 1 -5 -13z"/>
<path d="M9111 2872 c0 -13 -10 -60 -22 -104 -11 -44 -18 -82 -15 -85 5 -5 8
4 31 104 9 39 15 80 12 90 -4 14 -5 13 -6 -5z"/>
<path d="M5376 2755 c-3 -8 -1 -15 3 -15 5 0 11 7 15 15 3 8 1 15 -3 15 -5 0
-11 -7 -15 -15z"/>
<path d="M5486 2583 c9 -35 6 -33 32 -26 27 7 24 28 -4 28 -10 0 -18 6 -16 13
1 6 -3 12 -8 12 -6 0 -8 -11 -4 -27z"/>
<path d="M8060 2251 c0 -26 15 -35 37 -22 17 10 17 10 1 11 -10 0 -18 7 -18
15 0 8 -4 15 -10 15 -5 0 -10 -9 -10 -19z"/>
<path d="M5762 2147 c-6 -7 -9 -22 -6 -33 2 -10 0 -26 -6 -34 -9 -13 -11 -13
-20 0 -8 12 -10 9 -10 -12 0 -19 4 -26 14 -22 14 5 40 -49 29 -60 -12 -12 -22
-6 -17 9 4 10 0 15 -11 15 -28 0 -12 -34 21 -45 31 -10 46 -33 18 -27 -8 2
-24 -4 -36 -13 -21 -14 -21 -15 -3 -15 23 0 55 -42 36 -48 -6 -2 -11 -10 -11
-18 0 -19 81 -15 88 4 2 6 -3 12 -12 12 -9 0 -16 5 -16 11 0 6 8 8 19 4 16 -5
22 1 32 35 9 30 9 46 1 65 -7 15 -8 27 -2 30 10 6 -3 34 -29 68 -8 10 -10 17
-3 17 6 0 13 -6 15 -12 3 -8 6 -6 6 4 1 11 6 15 16 12 8 -4 15 -1 15 5 0 6
-14 11 -31 11 -28 0 -31 3 -27 25 3 13 1 22 -3 19 -5 -3 -9 -21 -9 -40 0 -23
-4 -33 -11 -28 -7 4 -9 0 -6 -12 4 -11 2 -35 -2 -54 -8 -30 -9 -31 -10 -9 -1
15 -8 32 -16 39 -8 7 -12 17 -8 23 4 6 10 4 18 -6 9 -13 11 -9 11 19 0 21 -5
34 -13 34 -7 0 -13 5 -13 10 0 6 5 10 10 10 6 0 10 5 10 10 0 14 -16 12 -28
-3z m93 -197 c3 -5 1 -10 -4 -10 -6 0 -11 5 -11 10 0 6 2 10 4 10 3 0 8 -4 11
-10z"/>
<path d="M5887 2061 c3 -12 11 -17 24 -14 16 4 16 7 4 19 -19 20 -34 17 -28
-5z"/>
<path d="M5940 2033 c0 -11 30 -33 44 -33 26 0 18 15 -14 27 -16 6 -30 9 -30
6z"/>
<path d="M5892 2010 c0 -14 2 -19 5 -12 2 6 2 18 0 25 -3 6 -5 1 -5 -13z"/>
<path d="M5630 2000 c0 -5 7 -10 16 -10 8 0 12 5 9 10 -3 6 -10 10 -16 10 -5
0 -9 -4 -9 -10z"/>
<path d="M5660 1965 c0 -9 -6 -12 -15 -9 -11 5 -15 -1 -15 -19 0 -14 7 -28 16
-31 23 -9 26 -8 18 7 -6 10 -4 10 7 0 7 -7 17 -13 21 -13 12 0 9 35 -4 48 -9
9 -9 12 0 12 7 0 12 5 12 10 0 6 -9 10 -20 10 -11 0 -20 -7 -20 -15z"/>
<path d="M5915 1948 c-11 -32 -13 -58 -6 -58 17 1 27 18 26 42 -2 37 -11 44
-20 16z"/>
<path d="M7215 1910 c-3 -5 1 -10 9 -10 9 0 16 5 16 10 0 6 -4 10 -9 10 -6 0
-13 -4 -16 -10z"/>
<path d="M5960 1900 c0 -5 5 -10 10 -10 6 0 10 5 10 10 0 6 -4 10 -10 10 -5 0
-10 -4 -10 -10z"/>
<path d="M6670 1900 c0 -5 7 -7 15 -4 8 4 15 8 15 10 0 2 -7 4 -15 4 -8 0 -15
-4 -15 -10z"/>
<path d="M5710 1880 c0 -5 7 -7 15 -4 8 4 15 8 15 10 0 2 -7 4 -15 4 -8 0 -15
-4 -15 -10z"/>
<path d="M5892 1864 c10 -10 20 -15 24 -12 3 4 -5 12 -18 18 -22 12 -22 12 -6
-6z"/>
<path d="M6735 1870 c3 -5 8 -10 11 -10 2 0 4 5 4 10 0 6 -5 10 -11 10 -5 0
-7 -4 -4 -10z"/>
<path d="M7340 1853 c-26 -12 -31 -17 -17 -20 9 -3 15 -9 11 -14 -3 -5 2 -12
10 -15 9 -3 16 -14 16 -24 0 -12 10 -19 30 -22 17 -3 30 -1 30 3 0 4 -12 10
-27 12 -27 4 -27 4 -5 12 12 4 22 14 22 22 0 13 3 13 15 3 8 -7 28 -10 45 -8
16 3 30 1 30 -4 0 -4 6 -8 13 -8 15 0 17 53 3 67 -5 5 -7 1 -3 -9 8 -24 -1
-23 -21 2 -14 16 -23 18 -52 11 -19 -5 -29 -9 -22 -10 17 -1 15 -21 -2 -21 -7
0 -16 9 -19 20 -6 24 -11 24 -57 3z"/>
<path d="M5716 1835 c16 -13 17 -16 4 -25 -12 -8 -11 -10 8 -10 12 0 22 5 22
11 0 14 -26 39 -41 39 -7 0 -4 -6 7 -15z"/>
<path d="M5805 1800 c-3 -5 3 -10 14 -10 12 0 21 5 21 10 0 6 -6 10 -14 10 -8
0 -18 -4 -21 -10z"/>
<path d="M5645 1779 c-12 -19 5 -23 22 -6 16 16 16 17 1 17 -9 0 -20 -5 -23
-11z"/>
<path d="M7310 1779 c0 -5 5 -7 10 -4 6 3 10 8 10 11 0 2 -4 4 -10 4 -5 0 -10
-5 -10 -11z"/>
<path d="M7813 1745 c-16 -17 -16 -25 -2 -25 6 0 17 -7 25 -15 8 -8 22 -11 30
-8 14 5 12 8 -7 19 -13 7 -23 15 -21 18 11 26 -6 33 -25 11z"/>
<path d="M8004 1749 c-8 -14 11 -33 25 -25 11 7 4 36 -9 36 -5 0 -12 -5 -16
-11z"/>
<path d="M5622 1725 c0 -16 2 -22 5 -12 2 9 2 23 0 30 -3 6 -5 -1 -5 -18z"/>
<path d="M7163 1663 c9 -9 20 -13 24 -9 4 4 1 11 -7 16 -25 16 -35 11 -17 -7z"/>
<path d="M7799 1668 c0 -7 -2 -21 -4 -30 -2 -11 2 -15 11 -11 8 3 14 11 14 19
0 8 0 17 1 21 0 4 -4 9 -10 11 -6 2 -11 -2 -12 -10z"/>
<path d="M7318 1645 c2 -15 0 -25 -7 -25 -6 0 -11 -7 -11 -15 0 -8 -4 -15 -8
-15 -5 0 -7 -13 -4 -30 2 -16 8 -30 12 -30 13 0 18 38 7 49 -8 8 -8 11 1 11 7
0 12 7 12 15 0 8 9 19 21 25 16 9 18 14 8 26 -19 23 -37 17 -31 -11z"/>
<path d="M7054 1626 c-7 -20 2 -46 16 -46 13 0 13 47 0 55 -6 3 -13 -1 -16 -9z"/>
<path d="M7156 1616 c3 -9 13 -16 21 -16 8 0 12 -4 9 -9 -4 -5 3 -7 14 -4 22
6 28 33 8 33 -7 0 -23 3 -36 6 -18 5 -21 3 -16 -10z"/>
<path d="M7250 1620 c0 -5 5 -10 11 -10 5 0 7 5 4 10 -3 6 -8 10 -11 10 -2 0
-4 -4 -4 -10z"/>
<path d="M7480 1620 c0 -5 5 -10 11 -10 5 0 7 5 4 10 -3 6 -8 10 -11 10 -2 0
-4 -4 -4 -10z"/>
<path d="M7756 1592 c-2 -4 -1 -14 5 -22 7 -12 9 -10 9 8 0 23 -5 28 -14 14z"/>
<path d="M6537 1564 c-4 -4 -7 -14 -7 -23 0 -11 3 -12 11 -4 6 6 10 16 7 23
-2 6 -7 8 -11 4z"/>
<path d="M7045 1560 c-3 -5 -1 -10 4 -10 6 0 11 5 11 10 0 6 -2 10 -4 10 -3 0
-8 -4 -11 -10z"/>
<path d="M6578 1545 c-8 -8 3 -55 13 -55 5 0 9 8 9 18 0 20 -14 44 -22 37z"/>
<path d="M6610 1541 c0 -5 7 -14 15 -21 16 -14 18 -10 9 14 -6 17 -24 22 -24
7z"/>
<path d="M7270 1538 c0 -9 5 -20 10 -23 13 -8 13 5 0 25 -8 13 -10 13 -10 -2z"/>
<path d="M6510 1481 c-5 -11 -10 -28 -10 -37 0 -16 1 -16 15 2 15 19 17 18 19
-14 2 -29 28 -72 43 -72 7 0 13 5 13 10 0 6 7 10 15 10 9 0 12 6 9 15 -4 8
-17 15 -31 15 -18 0 -24 4 -20 14 3 8 1 17 -6 20 -9 3 -9 5 1 5 9 1 8 7 -4 26
-20 30 -30 31 -44 6z"/>
<path d="M6780 1490 c0 -5 5 -10 10 -10 6 0 10 5 10 10 0 6 -4 10 -10 10 -5 0
-10 -4 -10 -10z"/>
<path d="M6590 1470 c0 -5 4 -10 9 -10 6 0 13 5 16 10 3 6 -1 10 -9 10 -9 0
-16 -4 -16 -10z"/>
<path d="M7830 1440 c0 -5 5 -10 11 -10 5 0 7 5 4 10 -3 6 -8 10 -11 10 -2 0
-4 -4 -4 -10z"/>
<path d="M7810 1385 c0 -8 5 -15 10 -15 6 0 10 7 10 15 0 8 -4 15 -10 15 -5 0
-10 -7 -10 -15z"/>
<path d="M6045 1250 c3 -5 8 -10 11 -10 2 0 4 5 4 10 0 6 -5 10 -11 10 -5 0
-7 -4 -4 -10z"/>
<path d="M7730 1126 c0 -9 5 -16 10 -16 6 0 10 4 10 9 0 6 -4 13 -10 16 -5 3
-10 -1 -10 -9z"/>
<path d="M8954 1105 c-3 -8 -4 -20 -2 -27 3 -7 7 -1 10 15 6 29 1 36 -8 12z"/>
<path d="M7784 899 c-3 -6 -2 -15 2 -19 12 -12 38 5 30 19 -9 14 -23 14 -32 0z"/>
<path d="M7922 666 c1 -10 8 -17 13 -17 15 1 12 24 -3 29 -9 3 -13 -2 -10 -12z"/>
<path d="M7820 640 c0 -5 5 -10 10 -10 6 0 10 5 10 10 0 6 -4 10 -10 10 -5 0
-10 -4 -10 -10z"/>
<path d="M8643 635 c-3 -9 -3 -18 0 -21 9 -9 27 6 27 22 0 19 -19 18 -27 -1z"/>
<path d="M7885 615 c0 -13 3 -21 8 -18 4 2 7 10 7 18 0 8 -3 16 -7 18 -5 3 -8
-5 -8 -18z"/>
<path d="M8570 600 c0 -6 7 -13 15 -17 24 -9 27 1 5 15 -13 8 -20 8 -20 2z"/>
<path d="M8667 596 c-4 -10 -1 -13 8 -9 8 3 12 9 9 14 -7 12 -11 11 -17 -5z"/>
<path d="M8514 586 c-3 -9 -12 -16 -20 -16 -8 0 -14 -4 -14 -10 0 -5 7 -10 16
-10 14 0 14 -3 4 -15 -11 -13 -7 -15 31 -14 24 1 37 3 27 6 -22 6 -32 33 -12
33 21 0 13 34 -9 38 -9 2 -20 -4 -23 -12z"/>
</g>
</svg>
